<?xml version="1.0" encoding="UTF-8" standalone="no"?>
<svg
   xmlns:dc="http://purl.org/dc/elements/1.1/"
   xmlns:cc="http://creativecommons.org/ns#"
   xmlns:rdf="http://www.w3.org/1999/02/22-rdf-syntax-ns#"
   xmlns:svg="http://www.w3.org/2000/svg"
   xmlns="http://www.w3.org/2000/svg"
   xmlns:sodipodi="http://sodipodi.sourceforge.net/DTD/sodipodi-0.dtd"
   xmlns:inkscape="http://www.inkscape.org/namespaces/inkscape"
   width="15.181231mm"
   height="15.968232mm"
   viewBox="0 0 15.181232 15.968233"
   version="1.1"
   id="svg8"
   sodipodi:docname="icon.svg"
   inkscape:export-filename="C:\Users\Gumdr\bitmap.png"
   inkscape:export-xdpi="96"
   inkscape:export-ydpi="96"
   inkscape:version="1.0.1 (3bc2e813f5, 2020-09-07)">
  <defs
     id="defs2">
    <style
       id="style1164">.cls-1{fill:#f4f1d7;}.cls-2{fill:#f1f1aa;}.cls-3{fill:#628c54;}.cls-4{fill:#6faa63;}.cls-5{fill:#e2deba;}.cls-6{fill:#86bc79;}.cls-7{fill:#557a47;}</style>
    <style
       id="style1164-5">.cls-1{fill:#f4f1d7;}.cls-2{fill:#f1f1aa;}.cls-3{fill:#628c54;}.cls-4{fill:#6faa63;}.cls-5{fill:#e2deba;}.cls-6{fill:#86bc79;}.cls-7{fill:#557a47;}</style>
  </defs>
  <sodipodi:namedview
     id="base"
     pagecolor="#ffffff"
     bordercolor="#666666"
     borderopacity="1.0"
     inkscape:pageopacity="0.0"
     inkscape:pageshadow="2"
     inkscape:zoom="6.0019314"
     inkscape:cx="40.793475"
     inkscape:cy="13.87987"
     inkscape:document-units="mm"
     inkscape:current-layer="layer1"
     inkscape:document-rotation="0"
     showgrid="false"
     inkscape:window-width="967"
     inkscape:window-height="1033"
     inkscape:window-x="481"
     inkscape:window-y="27"
     inkscape:window-maximized="0" />
  <metadata
     id="metadata5">
    <rdf:RDF>
      <cc:Work
         rdf:about="">
        <dc:format>image/svg+xml</dc:format>
        <dc:type
           rdf:resource="http://purl.org/dc/dcmitype/StillImage" />
        <dc:title></dc:title>
      </cc:Work>
    </rdf:RDF>
  </metadata>
  <g
     inkscape:label="Layer 1"
     inkscape:groupmode="layer"
     id="layer1"
     transform="translate(-108.21142,-181.56781)">
    <g
       id="g105"
       transform="matrix(0.39046915,0,0,0.38325702,108.21142,180.08631)"
       inkscape:export-xdpi="96"
       inkscape:export-ydpi="96">
      <path
         class="cls-2"
         d="m 10.718086,36.362883 a 3.33,3.33 0 0 0 -1.1599996,-1.14 c 0.19,-1.17 -0.29,-2.94 -1.79,-2.54 a 6.16,6.16 0 0 0 -1.43,0.65 c -0.69,-0.44 -1.76,-0.68 -2.31,-0.11 a 2.12,2.12 0 0 0 -0.27,1.91 3.27,3.27 0 0 0 -0.84,1.5 c -0.31,1.2 0.92,1.48 1.82,1.56 a 5.59,5.59 0 0 1 0.82,0 c 0.19,0.07 0.42,0.46 0.57,0.6 a 3.15,3.15 0 0 0 1.12,0.87 c 1,0.299996 1.58,-0.79 1.84,-1.62 a 2.53,2.53 0 0 0 1.2599996,-0.21 1.06,1.06 0 0 0 0.37,-1.47 z"
         id="path1208-1"
         inkscape:connector-curvature="0"
         style="fill:#f1f1aa" />
      <path
         class="cls-1"
         d="m 36.118082,31.802883 c 0.25,-4.7 3.44,-8.64 2.63,-13.49 -0.64,-3.83 -2.24,-7.89 -5.1,-10.6099987 a 11.31,11.31 0 0 0 -2.87,-2 10.67,10.67 0 0 0 -6,-1.69 10.49,10.49 0 0 0 -1.52,-0.04 c -4,0.09 -7.869996,2 -10.909996,4.42 C 8.4780864,11.392883 8.1980864,16.502883 5.2080864,20.142883 a 6.29,6.29 0 0 1 -3.64,0.69 1.61,1.61 0 0 0 -1.52,2 17.25,17.25 0 0 0 9.87,9.25 c 0.5999996,1.46 1.1099996,2.9 1.6099996,4.45 0.44,1.35 1,3.269996 2.34,3.999996 a 2.61,2.61 0 0 0 0.61,0.22 v 0 a 1.72,1.72 0 0 0 0.59,0.06 11,11 0 0 0 4.139996,-1.069996 16.06,16.06 0 0 0 4.29,-2.66 17.43,17.43 0 0 0 14.6,0.24 1.61,1.61 0 0 0 0.24,-2.53 6.39,6.39 0 0 1 -2.22,-2.99 z"
         id="path1210-7"
         inkscape:connector-curvature="0"
         style="fill:#f4f1d7" />
      <path
         class="cls-2"
         d="m 21.048082,41.642879 a 3.24,3.24 0 0 1 1.35,-0.91 c 0,-1.189996 0.82,-2.839996 2.22,-2.169996 a 6.54,6.54 0 0 1 1.29,0.9 c 0.76,-0.31 1.85,-0.35 2.29,0.31 a 2.11,2.11 0 0 1 -0.09,1.929996 3.13,3.13 0 0 1 0.56,1.63 c 0.08,1.24 -1.17,1.29 -2.08,1.2 a 5.64,5.64 0 0 0 -0.81,-0.15 c -0.2,0 -0.49,0.38 -0.66,0.49 a 3.2,3.2 0 0 1 -1.27,0.65 c -1,0.11 -1.41,-1.06 -1.51,-1.93 a 2.6,2.6 0 0 1 -1.2,-0.44 1.05,1.05 0 0 1 -0.09,-1.51 z"
         id="path1212-4"
         inkscape:connector-curvature="0"
         style="fill:#f1f1aa" />
      <path
         class="cls-5"
         d="m 17.048086,16.132883 c -4.57,3.46 -8.2699996,9.89 -7.1799996,15.8 a 0.22,0.22 0 0 0 0.4199996,0 c 0.46,-2.79 0.72,-5.47 1.84,-8.11 a 22,22 0 0 1 5.19,-7.35 c 0.12,-0.17 -0.11,-0.5 -0.27,-0.34 z"
         id="path1214-2"
         inkscape:connector-curvature="0"
         style="fill:#b7b484;fill-opacity:1" />
      <path
         class="cls-5"
         d="m 29.648082,20.792883 c 0.86,5.68 -1,12.87 -5.87,16.34 -0.17,0.12 -0.42,-0.12 -0.3,-0.29 a 33.9,33.9 0 0 0 4.33,-7.1 21.86,21.86 0 0 0 1.41,-8.88 c 0,-0.25 0.4,-0.32 0.43,-0.07 z"
         id="path1216-4"
         inkscape:connector-curvature="0"
         style="fill:#b7b484;fill-opacity:1" />
      <path
         class="cls-6"
         d="m 35.048082,8.4128843 a 3,3 0 0 0 -0.22,-0.75 c -0.19,-0.45 -0.53,-0.8 -0.75,-1.23 a 0.56,0.56 0 0 0 -0.26,-0.25 9.61,9.61 0 0 0 0,-1.42 0.66,0.66 0 0 0 -0.82,-0.62 c -0.7,0.2 -1.4,0.41 -2.09,0.64 a 6.89,6.89 0 0 0 -2,-0.86 v 0 a 0.42,0.42 0 0 0 -0.29,-0.05 0.45,0.45 0 0 0 -0.48,0.41 v 0.06 a 0.3,0.3 0 0 0 0,0.13 c 0,0 0,0 0,0.06 a 0.19,0.19 0 0 0 0.05,0.1 v 0 a 0.41,0.41 0 0 0 0,0.11 1.2,1.2 0 0 0 0.22,0.42 1.32,1.32 0 0 0 -0.82,0.3 0.56,0.56 0 0 0 0.13,1 l 1.35,0.35 a 3.74,3.74 0 0 1 1.44,0.45 c 0.29,0.27 0.38,1 0.5,1.35 a 14.5,14.5 0 0 0 0.53,1.38 c 0.22,0.5099987 1,0.3199987 1.12,-0.15 0.12,-0.47 0.29,-0.9 0.43,-1.35 l 0.13,0.08 a 4.23,4.23 0 0 0 0.93,0.63 0.56,0.56 0 0 0 0.9,-0.23 0.85,0.85 0 0 0 0.05,-0.37 0.77,0.77 0 0 0 -0.05,-0.19 z"
         id="path1218-3"
         inkscape:connector-curvature="0"
         style="fill:#86bc79" />
    </g>
  </g>
</svg>
