<svg id="Layer_1" data-name="Layer 1" xmlns="http://www.w3.org/2000/svg" viewBox="0 0 34.04 34.04"><defs><style>.cls-1{fill:#f1f1aa;}</style></defs><title>mirabell_etoile_socialmediaicons</title><path class="cls-1" d="M27.24.08H6.8A6.72,6.72,0,0,0,.08,6.8V27.24A6.72,6.72,0,0,0,6.8,34H27.24A6.72,6.72,0,0,0,34,27.24V6.8A6.72,6.72,0,0,0,27.24.08ZM25.13,12.92A21.06,21.06,0,0,1,25,15.46c-.13.66-.45,1.76-.57,2.11s-1.92,4-4.22,5.46a12.45,12.45,0,0,1-6.8,2.15c-3.11.26-6.54-1.83-6.54-1.83s4.15.22,6.09-1.68a5.34,5.34,0,0,1-2.28-.83c-.66-.53-1.51-1.47-1.53-2.06a12.68,12.68,0,0,0,1.79-.09c.27-.08-1.49-.23-2.41-1.51a4.75,4.75,0,0,1-.87-2.64,5,5,0,0,0,1.85.6c-.23-.26-1.72-1.43-1.81-3a4.08,4.08,0,0,1,.61-2.5s2.41,2.6,4.13,3.22a17.47,17.47,0,0,0,4.38,1,4.67,4.67,0,0,1,1-3.65A4,4,0,0,1,21,8.87c.54,0,2.44.39,3,1.25a8.93,8.93,0,0,0,2.65-.94,5.09,5.09,0,0,1-.67,1.37l-1,.84a9.09,9.09,0,0,0,2.23-.6A8,8,0,0,1,25.13,12.92Zm7.23-6.25a2.4,2.4,0,0,1-1.06.52c0,.8-.23,1.92-1.18,1.91a2.93,2.93,0,0,1-1.23-.46,4.45,4.45,0,0,0-.58-.36h-.06a4.48,4.48,0,0,0-.68.09,3,3,0,0,1-1.31-.09C25.4,7.86,25.65,6.75,26,6a2.44,2.44,0,0,1-.73-.91,1,1,0,0,1,.64-1.24,3,3,0,0,1,1.5-.08c.44-.7,1.37-1.4,2.13-1.17s1.34,1.13,1.44,2a3,3,0,0,1,1.33.7A1,1,0,0,1,32.36,6.67Z"/></svg>