<svg id="Layer_1" data-name="Layer 1" xmlns="http://www.w3.org/2000/svg" viewBox="0 0 34.04 34.04"><defs><style>.cls-1{fill:#f1f1aa;}</style></defs><title>mirabell_etoile_socialmediaicons</title><path class="cls-1" d="M17,23.93a6.63,6.63,0,1,0-6.63-6.63A6.63,6.63,0,0,0,17,23.93Zm-4.94-6.6a1.32,1.32,0,0,1,.49-1.82,4.07,4.07,0,0,1,2-.54c.38-1.06,1.4-2.26,2.48-2.17,1.08-.09,2.1,1.11,2.48,2.17a4.07,4.07,0,0,1,2,.54A1.32,1.32,0,0,1,22,17.33a3.31,3.31,0,0,1-1.24,1c.22,1.07.24,2.61-1,2.88A4.08,4.08,0,0,1,17.94,21a6.31,6.31,0,0,0-.87-.32H17a6.31,6.31,0,0,0-.87.32,4.08,4.08,0,0,1-1.76.25c-1.26-.27-1.24-1.81-1-2.88A3.27,3.27,0,0,1,12.08,17.33Z"/><path class="cls-1" d="M25.8,17.3a8.78,8.78,0,1,1-16-5H0V27.2A6.84,6.84,0,0,0,6.84,34H27.2A6.84,6.84,0,0,0,34,27.2V12.29H24.23A8.74,8.74,0,0,1,25.8,17.3Z"/><path class="cls-1" d="M27.2,0H9V8.65H7.76V0h-1V8.67H5.51V.13A6.17,6.17,0,0,0,4.45.44V8.65H3.17V1.08A6.83,6.83,0,0,0,0,6.84V11.2H10.71a8.77,8.77,0,0,1,12.62,0H34V6.84A6.84,6.84,0,0,0,27.2,0Zm3.65,7.76a1,1,0,0,1-1,1H26a1,1,0,0,1-1-1V3.93a1,1,0,0,1,1-1h3.83a1,1,0,0,1,1,1Z"/></svg>