<?xml version="1.0" encoding="UTF-8" standalone="no"?>
<svg
   xmlns:dc="http://purl.org/dc/elements/1.1/"
   xmlns:cc="http://creativecommons.org/ns#"
   xmlns:rdf="http://www.w3.org/1999/02/22-rdf-syntax-ns#"
   xmlns:svg="http://www.w3.org/2000/svg"
   xmlns="http://www.w3.org/2000/svg"
   xmlns:sodipodi="http://sodipodi.sourceforge.net/DTD/sodipodi-0.dtd"
   xmlns:inkscape="http://www.inkscape.org/namespaces/inkscape"
   id="Layer_1"
   data-name="Layer 1"
   viewBox="0 0 337.19438 65.203013"
   version="1.1"
   sodipodi:docname="mirabell_etoile_header-01.svg"
   inkscape:version="0.92.4 (5da689c313, 2019-01-14)"
   width="337.19437"
   height="65.203011">
  <metadata
     id="metadata1243">
    <rdf:RDF>
      <cc:Work
         rdf:about="">
        <dc:format>image/svg+xml</dc:format>
        <dc:type
           rdf:resource="http://purl.org/dc/dcmitype/StillImage" />
        <dc:title>mirabell_etoile_header</dc:title>
      </cc:Work>
    </rdf:RDF>
  </metadata>
  <sodipodi:namedview
     pagecolor="#ffffff"
     bordercolor="#666666"
     borderopacity="1"
     objecttolerance="10"
     gridtolerance="10"
     guidetolerance="10"
     inkscape:pageopacity="0"
     inkscape:pageshadow="2"
     inkscape:window-width="1815"
     inkscape:window-height="1051"
     id="namedview1241"
     showgrid="false"
     inkscape:zoom="2.5959412"
     inkscape:cx="117.55668"
     inkscape:cy="-15.453221"
     inkscape:window-x="-9"
     inkscape:window-y="-9"
     inkscape:window-maximized="1"
     inkscape:current-layer="Layer_1" />
  <defs
     id="defs1166">
    <style
       id="style1164">.cls-1{fill:#f4f1d7;}.cls-2{fill:#f1f1aa;}.cls-3{fill:#628c54;}.cls-4{fill:#6faa63;}.cls-5{fill:#e2deba;}.cls-6{fill:#86bc79;}.cls-7{fill:#557a47;}</style>
  </defs>
  <title
     id="title1168">mirabell_etoile_header</title>
  <path
     class="cls-1"
     d="m 45.452134,54.712884 c -1.07,1.12 -5.6,7.15 -7.15,6.83 0.38,0.08 3.46,-7.71 3.92,-9 1,-2.7 3,-9.35 -0.65,-11.09 -2.51,-1.2 -5.85,0.62 -8,2.43 0.59,-3.81 -0.19,-6.72 -3.77,-7 -3.25,-0.25 -6.2,2.33 -8.23,5 a 14.09,14.09 0 0 0 -0.59,-2.8 9.87,9.87 0 0 0 -14.7199997,-5.11 c -4.42,2.69 -9,11.68 -4.25,16 a 6.84,6.84 0 0 0 1.3,0.91 c 1.54,1.54 5.75,0.44 7.1199997,-0.62 2.26,-1.72 2.44,-5.62 -0.1,-7.16 a 0.37,0.37 0 0 0 -0.23,0 1,1 0 0 0 -0.5499997,-0.13 0.57,0.57 0 0 0 -0.62,0.36 1.17,1.17 0 0 0 -0.18,0.24 2.52,2.52 0 0 1 -0.92,0.72 1.38,1.38 0 0 1 -1,0 h -0.03 -0.11 l -0.16,-0.08 a 1.36,1.36 0 0 1 -0.93,-1.09 2.2,2.2 0 0 1 0.61,-1.61 c 1.54,-3.14 4.9599997,-5.31 8.5399997,-3.54 3.07,1.5 2.78,6.55 2.66,10.11 -0.14,0.54 -0.2,1.1 -0.37,1.64 -2.05,4.24 -3.84,8.63 -6,12.79 -1,1.9 1.78,3.54 2.87,1.68 2.29,-3.92 5.16,-9 6.66,-14.12 a 47.16,47.16 0 0 1 3.36,-5.36 c 1,-1.35 3.79,-5 5.66,-2.22 0.77,1.17 -1,5.24 -1.55,6.67 a 60.51,60.51 0 0 1 -3.07,7 c -1,1.93 -2,3.84 -3.07,5.62 -1.19,2 1.89,3.81 3.15,1.83 0.39,-0.62 1.09,-1.78 1.91,-3.28 3.53,-6 10.51,-17.19 12.6,-14.34 1.45,2 -3,9.8 -3.59,11.26 a 13.5,13.5 0 0 0 -1.36,4.37 c 0.14,2 1.19,3.62 3.5,3.21 l 0.94,-0.21 c 3.48,-1.42 6.35,-5.7 8,-8.61 a 1.08,1.08 0 0 0 -1.6,-1.3 z"
     id="path1170"
     inkscape:connector-curvature="0"
     style="fill:#f4f1d7" />
  <path
     class="cls-1"
     d="m 53.932134,59.822884 a 0.5,0.5 0 0 0 -0.5,0 13,13 0 0 0 -1.3,1.47 c -0.68,0.37 -1.59,0.69 -1.91,-0.15 a 2.9,2.9 0 0 1 -0.08,-1.33 39.23,39.23 0 0 1 1.75,-3.7 c 0.37,-0.81 0.49,-1.4 -0.3,-2 a 0.4,0.4 0 0 0 -0.37,-0.06 0.45,0.45 0 0 0 -0.29,0.09 h -0.07 c 0,0 0,0 0,0 v 0 0 0 l -0.06,0.06 -0.18,0.23 c 0,0 0,0 0,0 l -0.09,0.14 c -2,2.25 -5.71,8.61 -1.72,10.11 a 4.78,4.78 0 0 0 4.93,-1.67 c 0.46,-0.56 1.37,-2.52 0.19,-3.19 z"
     id="path1172"
     inkscape:connector-curvature="0"
     style="fill:#f4f1d7" />
  <path
     class="cls-2"
     d="m 55.242134,49.252884 -0.67,-0.21 c -0.24,-0.71 -0.55,-1.56 -1.32,-1.64 a 1.38,1.38 0 0 0 -1,0.45 c -0.27,0.22 -0.53,0.46 -0.79,0.7 a 4.22,4.22 0 0 0 -1.93,0.36 c -1.17,0.63 -0.11,1.72 0.63,2.35 a 9,9 0 0 1 -0.94,1.2 0.54,0.54 0 0 0 -0.14,0.31 0.48,0.48 0 0 0 0,0.45 0.68,0.68 0 0 0 0.25,0.23 0.57,0.57 0 0 0 0.48,0.14 14.15,14.15 0 0 0 2.3,-0.54 l 0.51,0.51 c 0.39,0.38 0.87,0.9 1.48,0.8 0.91,-0.17 0.87,-1.34 0.67,-2.39 0.35,-0.18 0.7,-0.37 1,-0.57 1.2,-0.78 0.6,-1.73 -0.53,-2.15 z"
     id="path1174"
     inkscape:connector-curvature="0"
     style="fill:#f1f1aa" />
  <path
     class="cls-1"
     d="m 65.312134,55.762884 c -1.2,-1.85 -3.43,-1.13 -5.05,-0.21 a 2.8,2.8 0 0 0 -2.45,-1.42 3.46,3.46 0 0 0 -2.06,1.08 1.21,1.21 0 0 0 -0.16,0.16 l -0.07,0.09 a 1.81,1.81 0 0 0 -0.18,0.21 1,1 0 0 0 -0.27,0.45 v 0 a 0.55,0.55 0 0 0 -0.05,0.3 0.65,0.65 0 0 0 0,0.31 0.38,0.38 0 0 0 0.19,0.28 v 0 0 a 0.68,0.68 0 0 0 0.54,0.06 l 0.56,-0.17 h 0.25 c 0.2,0.11 0.34,0.41 0.5,1.21 a 2.12,2.12 0 0 1 0,0.51 3.44,3.44 0 0 0 -0.14,0.86 c -0.06,0.26 -0.13,0.51 -0.19,0.73 -0.35,1.15 -0.89,2.22 -1.18,3.39 0,0 0,0 0,0 0,0 0,0.08 0,0.13 a 0.48,0.48 0 0 0 0,0.17 c 0,0 0,0 0,0 0,0.58 0.37,1.14 1,1.05 0.49,-0.07 1,-0.59 1.35,-1.22 0.35,-0.63 0.59,-1.41 0.94,-2.1 a 24.64,24.64 0 0 1 1.71,-3.5 c 0.69,-0.95 2.37,-1.3 2.48,0.22 a 0.36,0.36 0 0 1 -0.09,0.27 l -0.1,0.13 -0.17,0.23 a 0.38,0.38 0 0 0 -0.07,0.36 v 0.08 c 0,0 0,0 0,0 v 0 a 0.53,0.53 0 0 0 0,0.12 0.88,0.88 0 0 0 0,0.2 0.35,0.35 0 0 0 0.08,0.13 0.49,0.49 0 0 0 0.28,0.33 1.21,1.21 0 0 0 0.2,0.14 c 0.89,0.37 1.54,-0.33 1.93,-1.28 a 3.38,3.38 0 0 0 0.22,-3.3 z"
     id="path1176"
     inkscape:connector-curvature="0"
     style="fill:#f4f1d7" />
  <path
     class="cls-1"
     d="m 80.842134,61.352884 a 4.08,4.08 0 0 0 -0.07,-0.77 0.5,0.5 0 0 0 -1,0 2.88,2.88 0 0 1 -0.55,1.3 2.59,2.59 0 0 1 -0.18,0.21 l -0.35,0.17 a 3.07,3.07 0 0 1 -0.91,-0.26 0.64,0.64 0 0 1 -0.06,-0.14 4.5,4.5 0 0 0 0.55,-3.47 5.79,5.79 0 0 0 -1.7,-3.13 0.94,0.94 0 0 0 -0.09,-0.12 c -1.22,-1.39 -3.7,-1.34 -5.33,-0.51 a 3.64,3.64 0 0 0 -0.57,0.25 7.19,7.19 0 0 0 -3.35,3.8 c -0.91,2.09 -0.57,4.87 1.7,5.89 a 6,6 0 0 0 5.82,-0.79 3.84,3.84 0 0 0 3,1.19 3.17,3.17 0 0 0 1.82,-0.48 v 0 a 3.39,3.39 0 0 0 0.66,-0.54 2.17,2.17 0 0 0 0.62,-1.62 3.29,3.29 0 0 0 -0.01,-0.98 z m -10.52,-2.24 a 4.12,4.12 0 0 1 1.54,-2.14 2.3,2.3 0 0 1 3.13,0.39 c 0.91,1.34 0.23,3.59 -1.11,4.56 a 3.17,3.17 0 0 1 -3.68,-1.15 2.25,2.25 0 0 1 -0.15,-0.62 2.72,2.72 0 0 1 0.27,-1.04 z"
     id="path1178"
     inkscape:connector-curvature="0"
     style="fill:#f4f1d7" />
  <path
     class="cls-1"
     d="m 88.902134,52.542884 a 0.38,0.38 0 0 0 0,-0.1 19.61,19.61 0 0 0 0.85,-2.32 c 0.33,-0.8 0.61,-1.58 0.8,-2.17 a 11.22,11.22 0 0 0 0,-7.37 c -1.5,-4.21 -4.44,-7.68 -9.27,-6.4 -3.55,0.95 -5.14,5.65 -3.63,8.86 a 3.51,3.51 0 0 0 3.59,2.19 v 0 a 0.5,0.5 0 0 0 0.35,-0.06 l 0.21,-0.14 a 2.56,2.56 0 0 0 0.68,-0.44 2.09,2.09 0 0 0 0.55,-0.56 l 0.09,-0.11 a 3.25,3.25 0 0 0 0.6,-1.86 c 0,-0.51 -0.57,-0.61 -0.85,-0.32 -1.34,0.62 -3.53,0 -3.06,-1.68 0,-0.07 0,-0.13 0.07,-0.2 a 3.27,3.27 0 0 1 3.87,-0.84 l 0.24,0.13 a 3.78,3.78 0 0 1 2.63,3.64 31.58,31.58 0 0 1 -0.81,7.24 c -0.14,0.76 -0.3,1.5 -0.47,2.25 a 0.35,0.35 0 0 0 0,0.08 c -0.08,0.31 -0.18,0.63 -0.27,0.94 -0.65,2.24 -1.39,4.44 -2,6.67 -0.44,1.16 -0.9,2.31 -1.41,3.44 v 0 l -0.09,0.21 a 0.47,0.47 0 0 0 0,0.5 c 1,1.45 4.45,0.6 5.8,0.08 a 10,10 0 0 0 5.49,-5 c 1.51,-3.59 -0.86,-6.23 -3.96,-6.66 z m -2.34,8.43 v -0.17 c 0.52,-1.45 1,-2.93 1.4,-4.42 a 2.25,2.25 0 0 1 1,0.31 c 0.86,0.58 1.44,2.48 0.56,3.33 a 4.65,4.65 0 0 1 -2.96,0.95 z"
     id="path1180"
     inkscape:connector-curvature="0"
     style="fill:#f4f1d7" />
  <path
     class="cls-1"
     d="m 107.13213,60.912884 a 1.63,1.63 0 0 0 -1.19,-1.11 1.87,1.87 0 0 0 -1,-0.27 0.91,0.91 0 0 0 -0.85,0.25 0.55,0.55 0 0 0 -0.1,0.11 0.53,0.53 0 0 0 -0.2,0.66 4.44,4.44 0 0 0 0.38,0.67 c -0.26,1.47 -2.2,1.94 -3.76,1.86 a 2.46,2.46 0 0 1 -1.749996,-1.39 c 1.839996,-0.61 5.239996,-1.69 5.749996,-3.9 a 0.79,0.79 0 0 0 0,-0.09 l 0.06,-0.22 a 0.76,0.76 0 0 0 0,-0.15 c 0.35,-1.14 -1.08,-2.29 -2,-2.73 a 4.84,4.84 0 0 0 -0.61,-0.22 5,5 0 0 0 -2.769996,-0.28 4.11,4.11 0 0 0 -1.56,0.52 v 0 c -3,1.83 -4.94,6.57 -2,8.73 1.38,1.52 4.25,1.88 6.579996,1.57 a 5.61,5.61 0 0 0 3.86,-1.15 3.1,3.1 0 0 0 1.16,-2.86 z m -7.769996,-3.7 c 0.6,-0.34 3.199996,-1 2.709996,0.38 -0.22,0.64 -1.86,1.1 -2.469996,1.39 l -2,1 a 3.85,3.85 0 0 1 1.76,-2.77 z"
     id="path1182"
     inkscape:connector-curvature="0"
     style="fill:#f4f1d7" />
  <path
     class="cls-1"
     d="m 114.83213,59.162884 a 0.46,0.46 0 0 0 0.06,0.73 0.5,0.5 0 0 0 0.34,0.16 c 0.75,0 0.41,1.52 0.29,1.9 a 2.28,2.28 0 0 1 -0.72,1 v 0 c -3,0.71 -3.83,-1.28 -3.71,-3.33 a 6.17,6.17 0 0 1 0.19,-1.14 v 0 c 1.54,-3.95 5.07,-8.26 6,-12.7 a 9.52,9.52 0 0 0 0.65,-3.89 c 0,-0.12 0,-0.23 0,-0.35 v 0 a 7.19,7.19 0 0 0 -0.06,-0.78 10.84,10.84 0 0 0 -1,-3.37 3.89,3.89 0 0 0 -4.1,-3 5.1,5.1 0 0 0 -4.51,4.45 2.54,2.54 0 0 0 2.49,3.02 c 0.46,0 0.58,-0.46 0.38,-0.77 v 0 a 1.38,1.38 0 0 1 -0.61,-0.83 1.42,1.42 0 0 1 0.36,-1.34 h 0.06 l 0.15,-0.1 a 1.84,1.84 0 0 1 1.59,-0.1 3.52,3.52 0 0 1 1.48,1.3 10,10 0 0 1 0.29,3.85 c 0,0.21 -0.1,0.42 -0.16,0.63 -0.06,0.21 -0.06,0.33 -0.1,0.5 a 15.76,15.76 0 0 1 -1.42,4.09 c -1.53,3.35 -3.48,6.38 -4.73,9.83 a 7.57,7.57 0 0 0 -0.18,1.24 5,5 0 0 0 0.47,3.09 0.56,0.56 0 0 0 0.14,0.16 c 1.16,1.81 4.47,1.8 6.29,1.52 a 3.6,3.6 0 0 0 3.3,-3.79 1.52,1.52 0 0 0 0,-0.21 c 0.12,-1.59 -2.04,-2.96 -3.23,-1.77 z"
     id="path1184"
     inkscape:connector-curvature="0"
     style="fill:#f4f1d7" />
  <path
     class="cls-1"
     d="m 126.25213,59.162884 a 0.47,0.47 0 0 0 0.07,0.73 0.48,0.48 0 0 0 0.34,0.16 c 0.74,0 0.4,1.52 0.28,1.9 a 2.26,2.26 0 0 1 -0.71,1 v 0 c -3,0.71 -3.84,-1.28 -3.71,-3.33 a 6.16,6.16 0 0 1 0.18,-1.14 v 0 c 1.55,-3.95 5.08,-8.26 6,-12.7 a 9.51,9.51 0 0 0 0.64,-3.89 c 0,-0.12 0,-0.23 0,-0.35 v 0 c 0,-0.25 0,-0.51 -0.06,-0.78 a 10.84,10.84 0 0 0 -1,-3.37 3.9,3.9 0 0 0 -4.11,-3 5.09,5.09 0 0 0 -4.5,4.45 2.54,2.54 0 0 0 2.53,3.07 c 0.46,0 0.58,-0.46 0.37,-0.77 v 0 a 1.37,1.37 0 0 1 -0.6,-0.83 1.39,1.39 0 0 1 0.35,-1.34 h 0.06 l 0.15,-0.1 a 1.86,1.86 0 0 1 1.6,-0.1 3.58,3.58 0 0 1 1.48,1.3 10.47,10.47 0 0 1 0.29,3.85 c 0,0.21 -0.11,0.42 -0.17,0.63 a 4.8,4.8 0 0 1 -0.09,0.5 15.79,15.79 0 0 1 -1.43,4.09 c -1.52,3.35 -3.48,6.38 -4.73,9.83 a 6.6,6.6 0 0 0 -0.17,1.24 4.89,4.89 0 0 0 0.47,3.09 0.42,0.42 0 0 0 0.13,0.16 c 1.17,1.81 4.47,1.8 6.29,1.52 a 3.6,3.6 0 0 0 3.31,-3.79 1.52,1.52 0 0 1 0,-0.21 c 0.1,-1.64 -2.07,-3.01 -3.26,-1.82 z"
     id="path1186"
     inkscape:connector-curvature="0"
     style="fill:#f4f1d7" />
  <path
     class="cls-1"
     d="m 277.83213,57.322884 a 5.53,5.53 0 0 0 -4.3,-2.73 3.71,3.71 0 0 0 -3.94,2.27 2.71,2.71 0 0 0 0.85,3.71 0.47,0.47 0 0 0 0.68,-0.21 1.27,1.27 0 0 1 -0.3,-0.94 v -0.06 a 0.5,0.5 0 0 1 0.05,-0.13 0.83,0.83 0 0 1 0.06,-0.21 1.3,1.3 0 0 1 1.1,-1 2,2 0 0 1 1.06,0.1 1.56,1.56 0 0 1 1.21,0.93 c 0.41,0.91 -0.25,1.5 -1,1.88 a 9.49,9.49 0 0 1 -1,0.62 5.24,5.24 0 0 1 -0.69,0.28 l -0.15,0.06 a 9.52,9.52 0 0 1 -1.3,0.33 20.37,20.37 0 0 1 -3.65,0.25 17.69,17.69 0 0 1 -8.75,-2.07 5.92,5.92 0 0 1 -1.63,-2.32 11.83,11.83 0 0 1 2.39,-6 10.27,10.27 0 0 0 1.75,0.45 c 0.34,0.07 0.68,0.12 1,0.17 a 13.27,13.27 0 0 0 3.49,0.3 c 1.87,-0.13 5.18,-0.88 6,-2.89 a 2.37,2.37 0 0 0 -0.86,-2.8 3.94,3.94 0 0 0 -1.32,-0.93 l -0.18,-0.08 a 4.6,4.6 0 0 0 -1.59,-0.57 c -2.52,-0.43 -5.5,0.53 -8.08,2.2 -2.05,-1.28 -1.53,-4.78 -0.59,-6.73 a 20.4,20.4 0 0 0 2.46,0.94 11.88,11.88 0 0 0 10.43,-0.17 c 2.94,-0.92 5.4,-2.56 4.65,-5.26 a 5.79,5.79 0 0 0 -2.34,-2.74 c -1.42,-1.32 -3.44,-1.64 -5.5,-1.71 a 0.41,0.41 0 0 0 -0.25,0.08 13.65,13.65 0 0 0 -4.07,0.23 12.55,12.55 0 0 0 -4.57,1.5 l -0.21,0.07 -0.09,0.08 -0.95,0.48 a 1.27,1.27 0 0 0 -0.12,0.1 5,5 0 0 0 -0.77,0.53 7,7 0 0 0 -0.7,0.74 l -0.84,-0.69 a 0.48,0.48 0 0 1 -0.35,-0.31 22,22 0 0 0 -2.94,-2.26 10.29,10.29 0 0 0 -4.86,-0.63 14.68,14.68 0 0 0 -2.36,0.38 10.74,10.74 0 0 0 -1.11,0.49 c -2.11,0.89 -3.87,2.35 -4.06,4.72 -0.23,3.06 2.48,5.51 5.43,5.72 a 5.2,5.2 0 0 0 3.12,-1 7.53,7.53 0 0 0 2.61,-2.62 0.88,0.88 0 0 0 0,-1 c 0,0 0,-0.09 0,-0.13 h -0.27 l -0.22,0.13 a 2.59,2.59 0 0 1 -1.8,0.36 1.56,1.56 0 0 1 -1.37,-0.54 v 0 a 0.92,0.92 0 0 1 -0.19,-1.06 c 0.28,-1 2.13,-1.6 3.05,-1.13 a 1,1 0 0 1 0.56,0.27 v 0 a 10.33,10.33 0 0 0 1.15,0.81 l 0.17,0.14 h 0.05 l 0.53,0.35 a 0.43,0.43 0 0 1 0,0.07 l 0.81,0.53 c 0.35,0.26 0.67,0.49 1,0.71 a 8.37,8.37 0 0 0 -1.62,6.3 7.72,7.72 0 0 0 2.55,4.61 13.64,13.64 0 0 0 -4.4,4.24 c -1,1.64 -1.53,4.22 -0.6,6 0.44,1.58 1.94,2.27 3.38,2.87 a 16.76,16.76 0 0 0 6.3,1.37 c 0.41,0.08 0.82,0.15 1.23,0.2 h 0.07 0.13 a 0.41,0.41 0 0 0 0.34,-0.11 27.1,27.1 0 0 0 6.57,-0.23 13.17,13.17 0 0 0 7.76,-2.63 6.48,6.48 0 0 0 1.09,-1.18 3.06,3.06 0 0 0 1,-2.14 2.14,2.14 0 0 0 -0.19,-1.36 z m -16.87,-8 a 13.46,13.46 0 0 1 5.39,-1.49 3.31,3.31 0 0 1 1.87,1 1.19,1.19 0 0 1 0,0.33 0.87,0.87 0 0 1 -0.15,0.71 9.35,9.35 0 0 1 -3.73,0.86 7.53,7.53 0 0 1 -3.88,-1 c 0.2,-0.14 0.35,-0.28 0.5,-0.4 z m 3.23,-14.24 a 7.59,7.59 0 0 1 4,0.64 c 2.25,1.13 1.28,2.75 -0.24,3.82 a 6.25,6.25 0 0 1 -2.06,0.19 13.67,13.67 0 0 1 -2.8,-0.36 30.53,30.53 0 0 1 -3.94,-1.4 19.3,19.3 0 0 1 5.04,-2.88 z"
     id="path1188"
     inkscape:connector-curvature="0"
     style="fill:#f4f1d7" />
  <path
     class="cls-2"
     d="m 273.75213,26.382884 a 4,4 0 0 0 0,-0.6 c -0.07,-0.74 -0.44,-1.29 -1,-1.33 a 0.47,0.47 0 0 0 -0.5,0.13 2,2 0 0 0 -0.38,0.3 c -0.62,0.65 -0.86,1.53 -1.54,2.17 a 5.31,5.31 0 0 1 -3.36,1.39 0.82,0.82 0 0 0 -0.54,1.15 4.85,4.85 0 0 0 2.85,0.48 4.79,4.79 0 0 0 3.6,-1.38 3.12,3.12 0 0 0 0.87,-2.31 z"
     id="path1190"
     inkscape:connector-curvature="0"
     style="fill:#f1f1aa" />
  <path
     class="cls-1"
     d="m 285.35213,53.592884 c 3,0 7.48,-0.8 5.81,-4 a 0.39,0.39 0 0 0 -0.31,-0.21 v 0 l -0.08,-0.05 a 0.51,0.51 0 0 0 -0.65,0.15 7.47,7.47 0 0 1 -3.07,0.42 68.06,68.06 0 0 0 3.21,-9.26 c 0.65,-2.44 0.82,-5.43 -2.07,-6.4 -2.5,-0.84 -4.61,1 -5.4,3.24 a 0.43,0.43 0 0 0 0,0.34 v 0.06 a 0.42,0.42 0 0 0 0.62,0.47 c 1.16,-0.75 2.58,-1.51 3.57,-1.35 0,4.79 -2.34,9 -4.11,13.47 a 7.67,7.67 0 0 1 -4.43,-0.95 0.4,0.4 0 0 1 -0.26,-0.14 v -0.07 a 0.52,0.52 0 0 1 -0.12,-0.17 1.25,1.25 0 0 1 -0.16,-0.33 1.7,1.7 0 0 1 -0.26,-0.38 0.46,0.46 0 0 1 0,-0.52 1.81,1.81 0 0 1 0.79,-1.55 0.49,0.49 0 0 0 -0.06,-0.36 0.52,0.52 0 0 0 -0.94,-0.25 c -1,1.55 -1.81,3.27 -0.5,4.91 a 7.62,7.62 0 0 0 3.66,2.15 0.66,0.66 0 0 0 0,0.14 10.07,10.07 0 0 1 1.29,0.31 c -1.18,3.39 -2.8,8.79 -0.31,11.3 a 0.35,0.35 0 0 0 0.18,0.11 1.91,1.91 0 0 0 0.45,0.23 0.62,0.62 0 0 0 0.31,0.13 h 0.21 0.03 a 1.61,1.61 0 0 1 0.22,0 h 0.24 0.14 a 4.37,4.37 0 0 0 2,-0.19 6.08,6.08 0 0 0 3.91,-4.22 0.92,0.92 0 0 0 -1.77,-0.49 c -0.37,1.35 -1.85,3.4 -3.56,2.91 -1.71,-0.49 -1,-3.25 -0.68,-4.38 a 27.41,27.41 0 0 1 2.1,-5.07 z"
     id="path1192"
     inkscape:connector-curvature="0"
     style="fill:#f4f1d7" />
  <path
     class="cls-1"
     d="m 303.52213,57.302884 a 0.27,0.27 0 0 0 0,-0.16 v 0 a 0.29,0.29 0 0 0 -0.09,-0.21 0.35,0.35 0 0 0 -0.68,0 0.83,0.83 0 0 1 -0.15,0.21 0.6,0.6 0 0 0 -0.08,0.08 2.7,2.7 0 0 1 -0.27,0.39 3.28,3.28 0 0 1 -0.93,0.68 2,2 0 0 1 -0.49,0.15 4.43,4.43 0 0 0 -0.6,-2.14 h 0.11 v 0 l 0.09,-0.06 a 0.64,0.64 0 0 0 0.24,-0.25 c 0,0 0,-0.08 0,-0.11 a 0.9,0.9 0 0 0 -0.3,-1.23 1.43,1.43 0 0 0 -1.34,-0.36 3.19,3.19 0 0 0 -1,0.29 6,6 0 0 0 -5.61,1.85 4.12,4.12 0 0 0 -1.18,1.94 4.53,4.53 0 0 0 0.48,4.39 3.53,3.53 0 0 0 0.92,1.2 v 0 a 3.61,3.61 0 0 0 1.51,1 0.35,0.35 0 0 0 0.14,0 4.71,4.71 0 0 0 1.48,0.24 4.5,4.5 0 0 0 3.7,-1.89 7,7 0 0 0 0.76,-1.4 v 0 c 0.14,-0.43 0.28,-0.86 0.39,-1.3 v 0 c 0,-0.12 0,-0.23 0.07,-0.34 a 3.22,3.22 0 0 0 1.37,-0.88 c 0,0 0,0 0,-0.06 a 3.8,3.8 0 0 0 0.95,-1.29 3.48,3.48 0 0 0 0.34,-0.51 0.18,0.18 0 0 0 0,-0.11 z m -5.16,3.26 a 6.4,6.4 0 0 1 -1.07,1.64 7.59,7.59 0 0 1 -1,0.74 1.61,1.61 0 0 1 -1.7,-0.39 c -1.53,-1.33 -0.71,-3.82 0.62,-4.91 a 3.73,3.73 0 0 1 0.78,-0.48 2.87,2.87 0 0 0 1.86,3.09 l 0.37,0.1 0.17,0.17 a 0.06,0.06 0 0 0 -0.03,0.04 z m -0.3,-2.32 -0.06,-0.09 a 1.22,1.22 0 0 1 0.39,-1.26 3.64,3.64 0 0 1 0.41,1.84 1.68,1.68 0 0 1 -0.74,-0.49 z"
     id="path1194"
     inkscape:connector-curvature="0"
     style="fill:#f4f1d7" />
  <path
     class="cls-1"
     d="m 310.30213,59.802884 a 0.52,0.52 0 0 0 -0.51,0 12.12,12.12 0 0 0 -1.29,1.47 c -0.69,0.37 -1.59,0.69 -1.91,-0.15 a 2.9,2.9 0 0 1 -0.08,-1.33 38.62,38.62 0 0 1 1.74,-3.7 c 0.38,-0.82 0.49,-1.4 -0.29,-2 a 0.4,0.4 0 0 0 -0.37,-0.06 0.4,0.4 0 0 0 -0.29,0.09 0.18,0.18 0 0 0 -0.07,0 v 0 h -0.05 v 0 h -0.07 l -0.17,0.24 c 0,0 0,0 0,0 l -0.09,0.14 c -2,2.24 -5.7,8.61 -1.71,10.11 1.69,0.63 3.85,-0.34 4.93,-1.67 0.5,-0.51 1.4,-2.48 0.23,-3.14 z"
     id="path1196"
     inkscape:connector-curvature="0"
     style="fill:#f4f1d7" />
  <path
     class="cls-2"
     d="m 311.61213,49.232884 -0.68,-0.21 c -0.24,-0.71 -0.55,-1.56 -1.31,-1.64 a 1.41,1.41 0 0 0 -1,0.44 l -0.8,0.71 a 4.17,4.17 0 0 0 -1.92,0.36 c -1.17,0.63 -0.12,1.72 0.62,2.35 a 9,9 0 0 1 -0.93,1.2 0.46,0.46 0 0 0 -0.14,0.31 0.48,0.48 0 0 0 0,0.45 0.92,0.92 0 0 0 0.73,0.37 14.65,14.65 0 0 0 2.3,-0.54 l 0.51,0.51 c 0.38,0.38 0.86,0.9 1.47,0.79 0.92,-0.16 0.87,-1.33 0.68,-2.38 0.34,-0.19 0.69,-0.37 1,-0.57 1.2,-0.78 0.61,-1.73 -0.53,-2.15 z"
     id="path1198"
     inkscape:connector-curvature="0"
     style="fill:#f1f1aa" />
  <path
     class="cls-1"
     d="m 319.15213,59.212884 a 0.47,0.47 0 0 0 0.07,0.73 0.48,0.48 0 0 0 0.34,0.16 c 0.75,0 0.41,1.52 0.28,1.9 a 2.24,2.24 0 0 1 -0.71,1 h -0.05 c -3,0.71 -3.83,-1.28 -3.71,-3.33 a 6.42,6.42 0 0 1 0.19,-1.15 v 0 c 1.54,-3.94 5.07,-8.26 6,-12.69 a 9.56,9.56 0 0 0 0.65,-3.9 c 0,-0.11 0,-0.23 0,-0.34 v 0 a 7,7 0 0 0 -0.06,-0.78 10.84,10.84 0 0 0 -1,-3.37 3.88,3.88 0 0 0 -4.1,-3 5.09,5.09 0 0 0 -4.51,4.45 2.54,2.54 0 0 0 2.53,3.07 c 0.46,0.05 0.58,-0.46 0.38,-0.77 0,0 0,0 0,0 a 1.38,1.38 0 0 1 -0.61,-0.83 1.42,1.42 0 0 1 0.36,-1.34 c 0,0 0,0 0.05,0 l 0.16,-0.1 a 1.84,1.84 0 0 1 1.59,-0.1 3.52,3.52 0 0 1 1.48,1.3 10,10 0 0 1 0.29,3.85 6.25,6.25 0 0 1 -0.16,0.62 c 0,0.17 -0.06,0.34 -0.1,0.51 a 15.89,15.89 0 0 1 -1.42,4.09 c -1.53,3.35 -3.48,6.38 -4.73,9.83 a 7.57,7.57 0 0 0 -0.18,1.24 5,5 0 0 0 0.47,3.09 0.44,0.44 0 0 0 0.14,0.16 c 1.16,1.8 4.47,1.79 6.29,1.52 a 3.6,3.6 0 0 0 3.3,-3.79 1.77,1.77 0 0 0 0,-0.21 c 0.13,-1.64 -2.03,-3.01 -3.23,-1.82 z"
     id="path1200"
     inkscape:connector-curvature="0"
     style="fill:#f4f1d7" />
  <path
     class="cls-1"
     d="m 337.17213,60.972884 a 1.61,1.61 0 0 0 -1.18,-1.11 1.87,1.87 0 0 0 -1.05,-0.27 0.91,0.91 0 0 0 -0.85,0.24 l -0.1,0.11 a 0.55,0.55 0 0 0 -0.2,0.67 4.91,4.91 0 0 0 0.37,0.67 c -0.25,1.47 -2.19,1.94 -3.75,1.86 a 2.46,2.46 0 0 1 -1.75,-1.39 c 1.84,-0.61 5.24,-1.69 5.75,-3.9 a 0.79,0.79 0 0 0 0,-0.09 l 0.05,-0.22 a 0.39,0.39 0 0 0 0,-0.15 c 0.36,-1.14 -1.08,-2.29 -2,-2.73 a 5.48,5.48 0 0 0 -0.61,-0.22 5,5 0 0 0 -2.78,-0.28 4.12,4.12 0 0 0 -1.55,0.52 h -0.05 c -3,1.83 -4.94,6.56 -2,8.73 1.38,1.52 4.25,1.88 6.58,1.57 a 5.57,5.57 0 0 0 3.85,-1.15 3.05,3.05 0 0 0 1.27,-2.86 z m -7.76,-3.7 c 0.6,-0.34 3.2,-1 2.71,0.38 -0.23,0.64 -1.86,1.1 -2.47,1.39 l -2,1 a 3.85,3.85 0 0 1 1.76,-2.81 z"
     id="path1202"
     inkscape:connector-curvature="0"
     style="fill:#f4f1d7" />
  <path
     class="cls-3"
     d="m 193.29213,43.192884 c -2.19,-1.46 -3.87,-2.28 -4.82,-5 a 37.22,37.22 0 0 1 -1.1,-5.64 c -0.79,-4.54 -1.64,-9.06 -2.3,-13.63 a 127.45,127.45 0 0 0 -2.32,-13.5899997 12,12 0 0 0 -0.68,-2 5.89,5.89 0 0 0 -0.24,-0.56 5.05,5.05 0 0 0 -0.68,-1.1 3.28,3.28 0 0 0 -2.2,-1.60000002 h -0.09 v 0 a 2.08,2.08 0 0 0 -1.08,0 7.6,7.6 0 0 0 -3.54,1.76000002 0.42,0.42 0 0 0 -0.14,0.16 c -1.17,0.79 -2.29,1.72 -3.24,2.51 a 0.53,0.53 0 0 0 -0.21,0.34 c -0.44,0.47 0.17,1.14 0.74,0.93 l 0.59,-0.24 a 1.58,1.58 0 0 0 2.26,0.75 10.62,10.62 0 0 0 1.27,-0.72 13.64,13.64 0 0 0 1.34,-0.59 61.64,61.64 0 0 1 -0.27,6.6399997 c -0.08,2.79 0,5.56 0.15,8.35 a 114,114 0 0 0 2.18,16.46 c 1.19,5.66 6.47,19.11 14.66,13.7 a 2.44,2.44 0 0 0 1,-2.7 3.58,3.58 0 0 0 -1.28,-4.23 z"
     id="path1204"
     inkscape:connector-curvature="0"
     style="fill:#628c54" />
  <path
     class="cls-4"
     d="m 182.55213,43.202884 c 0,-0.11 0.06,-0.21 0.1,-0.31 a 0.34,0.34 0 0 1 0.13,-0.34 h 0.07 a 1.08,1.08 0 0 1 0.39,-0.32 4.74,4.74 0 0 1 1.65,-1 9.54,9.54 0 0 1 5.44,-0.84 16.22,16.22 0 0 1 5.68,1.27 c 5.52,2.3 9,7.09 12.71,11.5 0.39,0.24 0.78,0.48 1.14,0.67 a 21.09,21.09 0 0 0 5.82,1.51 5.4,5.4 0 0 0 3.4,-1.29 c 1,-1 1.38,-3 0.07,-3.94 0,0 0,-0.05 -0.07,-0.07 a 1.43,1.43 0 0 0 -0.8,0 0.51,0.51 0 0 1 -0.62,-0.61 1.07,1.07 0 0 1 0.45,-0.63 0.23,0.23 0 0 1 0.07,-0.07 1.8,1.8 0 0 1 1.44,-0.3 1,1 0 0 1 0.21,0 l 0.22,0.1 v 0 0 a 7.2,7.2 0 0 1 3.19,11 c -3.58,4.68 -11.33,5.87 -16.8,5.55 a 28.67,28.67 0 0 1 -17,-7 c -3.89,-3.34 -8.48,-8.75 -7.14,-14.22 a 0.71,0.71 0 0 1 0,-0.2 3.7,3.7 0 0 1 0.25,-0.46 z"
     id="path1206"
     inkscape:connector-curvature="0"
     style="fill:#6faa63" />
  <path
     class="cls-2"
     d="m 150.42213,36.362884 a 3.33,3.33 0 0 0 -1.16,-1.14 c 0.19,-1.17 -0.29,-2.94 -1.79,-2.54 a 6.16,6.16 0 0 0 -1.43,0.65 c -0.69,-0.44 -1.76,-0.68 -2.31,-0.11 a 2.12,2.12 0 0 0 -0.27,1.91 3.27,3.27 0 0 0 -0.84,1.5 c -0.31,1.2 0.92,1.48 1.82,1.56 a 5.59,5.59 0 0 1 0.82,0 c 0.19,0.07 0.42,0.46 0.57,0.6 a 3.15,3.15 0 0 0 1.12,0.87 c 1,0.3 1.58,-0.79 1.84,-1.62 a 2.53,2.53 0 0 0 1.26,-0.21 1.06,1.06 0 0 0 0.37,-1.47 z"
     id="path1208"
     inkscape:connector-curvature="0"
     style="fill:#f1f1aa" />
  <path
     class="cls-1"
     d="m 175.82213,31.802884 c 0.25,-4.7 3.44,-8.64 2.63,-13.49 -0.64,-3.83 -2.24,-7.89 -5.1,-10.6099997 a 11.31,11.31 0 0 0 -2.87,-2 10.67,10.67 0 0 0 -6,-1.69 10.49,10.49 0 0 0 -1.52,-0.04 c -4,0.09 -7.87,2 -10.91,4.42 -3.87,2.9999997 -4.15,8.1099997 -7.14,11.7499997 a 6.29,6.29 0 0 1 -3.64,0.69 1.61,1.61 0 0 0 -1.52,2 17.25,17.25 0 0 0 9.87,9.25 c 0.6,1.46 1.11,2.9 1.61,4.45 0.44,1.35 1,3.27 2.34,4 a 2.61,2.61 0 0 0 0.61,0.22 v 0 a 1.72,1.72 0 0 0 0.59,0.06 11,11 0 0 0 4.14,-1.07 16.06,16.06 0 0 0 4.29,-2.66 17.43,17.43 0 0 0 14.6,0.24 1.61,1.61 0 0 0 0.24,-2.53 6.39,6.39 0 0 1 -2.22,-2.99 z"
     id="path1210"
     inkscape:connector-curvature="0"
     style="fill:#f4f1d7" />
  <path
     class="cls-2"
     d="m 160.75213,41.642884 a 3.24,3.24 0 0 1 1.35,-0.91 c 0,-1.19 0.82,-2.84 2.22,-2.17 a 6.54,6.54 0 0 1 1.29,0.9 c 0.76,-0.31 1.85,-0.35 2.29,0.31 a 2.11,2.11 0 0 1 -0.09,1.93 3.13,3.13 0 0 1 0.56,1.63 c 0.08,1.24 -1.17,1.29 -2.08,1.2 a 5.64,5.64 0 0 0 -0.81,-0.15 c -0.2,0 -0.49,0.38 -0.66,0.49 a 3.2,3.2 0 0 1 -1.27,0.65 c -1,0.11 -1.41,-1.06 -1.51,-1.93 a 2.6,2.6 0 0 1 -1.2,-0.44 1.05,1.05 0 0 1 -0.09,-1.51 z"
     id="path1212"
     inkscape:connector-curvature="0"
     style="fill:#f1f1aa" />
  <path
     class="cls-5"
     d="m 156.75213,16.132884 c -4.57,3.46 -8.27,9.89 -7.18,15.8 a 0.22,0.22 0 0 0 0.42,0 c 0.46,-2.79 0.72,-5.47 1.84,-8.11 a 22,22 0 0 1 5.19,-7.35 c 0.12,-0.17 -0.11,-0.5 -0.27,-0.34 z"
     id="path1214"
     inkscape:connector-curvature="0"
     style="fill:#e2deba" />
  <path
     class="cls-5"
     d="m 169.35213,20.792884 c 0.86,5.68 -1,12.87 -5.87,16.34 -0.17,0.12 -0.42,-0.12 -0.3,-0.29 a 33.9,33.9 0 0 0 4.33,-7.1 21.86,21.86 0 0 0 1.41,-8.88 c 0,-0.25 0.4,-0.32 0.43,-0.07 z"
     id="path1216"
     inkscape:connector-curvature="0"
     style="fill:#e2deba" />
  <path
     class="cls-6"
     d="m 174.75213,8.4128843 a 3,3 0 0 0 -0.22,-0.75 c -0.19,-0.45 -0.53,-0.8 -0.75,-1.23 a 0.56,0.56 0 0 0 -0.26,-0.25 9.61,9.61 0 0 0 0,-1.42 0.66,0.66 0 0 0 -0.82,-0.62 c -0.7,0.2 -1.4,0.41 -2.09,0.64 a 6.89,6.89 0 0 0 -2,-0.86 v 0 a 0.42,0.42 0 0 0 -0.29,-0.05 0.45,0.45 0 0 0 -0.48,0.41 v 0.06 a 0.3,0.3 0 0 0 0,0.13 c 0,0 0,0 0,0.06 a 0.19,0.19 0 0 0 0.05,0.1 v 0 a 0.41,0.41 0 0 0 0,0.11 1.2,1.2 0 0 0 0.22,0.42 1.32,1.32 0 0 0 -0.82,0.3 0.56,0.56 0 0 0 0.13,1 l 1.35,0.35 a 3.74,3.74 0 0 1 1.44,0.45 c 0.29,0.27 0.38,1 0.5,1.35 a 14.5,14.5 0 0 0 0.53,1.38 c 0.22,0.5099997 1,0.3199997 1.12,-0.15 0.12,-0.47 0.29,-0.9 0.43,-1.35 l 0.13,0.08 a 4.23,4.23 0 0 0 0.93,0.63 0.56,0.56 0 0 0 0.9,-0.23 0.85,0.85 0 0 0 0.05,-0.37 0.77,0.77 0 0 0 -0.05,-0.19 z"
     id="path1218"
     inkscape:connector-curvature="0"
     style="fill:#86bc79" />
  <path
     class="cls-2"
     d="m 220.09213,36.362884 a 3.28,3.28 0 0 1 1.17,-1.14 c -0.19,-1.17 0.29,-2.94 1.78,-2.54 a 6.16,6.16 0 0 1 1.43,0.65 c 0.69,-0.44 1.76,-0.68 2.32,-0.11 a 2.15,2.15 0 0 1 0.26,1.91 3.2,3.2 0 0 1 0.85,1.5 c 0.31,1.2 -0.92,1.48 -1.83,1.56 a 5.6,5.6 0 0 0 -0.82,0 c -0.19,0.07 -0.42,0.46 -0.56,0.6 a 3.18,3.18 0 0 1 -1.13,0.87 c -1,0.3 -1.58,-0.79 -1.84,-1.62 a 2.53,2.53 0 0 1 -1.26,-0.21 1.07,1.07 0 0 1 -0.37,-1.47 z"
     id="path1220"
     inkscape:connector-curvature="0"
     style="fill:#f1f1aa" />
  <path
     class="cls-2"
     d="m 209.75213,41.642884 a 3.33,3.33 0 0 0 -1.36,-0.91 c 0,-1.19 -0.82,-2.84 -2.22,-2.17 a 6.52,6.52 0 0 0 -1.28,0.9 c -0.76,-0.31 -1.86,-0.35 -2.3,0.31 a 2.17,2.17 0 0 0 0.09,1.93 3.22,3.22 0 0 0 -0.56,1.63 c -0.08,1.24 1.18,1.29 2.08,1.2 a 5.64,5.64 0 0 1 0.81,-0.15 c 0.2,0 0.5,0.38 0.66,0.49 a 3.34,3.34 0 0 0 1.27,0.65 c 1,0.11 1.41,-1.06 1.51,-1.93 a 2.6,2.6 0 0 0 1.2,-0.44 1.06,1.06 0 0 0 0.1,-1.51 z"
     id="path1222"
     inkscape:connector-curvature="0"
     style="fill:#f1f1aa" />
  <path
     class="cls-7"
     d="m 186.16213,21.752884 c 0.06,-0.85 -1.06,-1.28 -1.38,-0.4 a 79.15,79.15 0 0 0 -2.15,8.38 c -0.82,3.31 -1.7,6.6 -2.61,9.88 -0.37,1.33 1.43,2.16 1.81,0.83 1.68,-5.95 3.92,-12.47 4.33,-18.69 z"
     id="path1224"
     inkscape:connector-curvature="0"
     style="fill:#557a47" />
  <path
     class="cls-3"
     d="m 177.23213,43.192884 c 2.18,-1.46 3.87,-2.28 4.82,-5 a 38.47,38.47 0 0 0 1.09,-5.64 c 0.8,-4.54 1.65,-9.06 2.31,-13.63 a 130,130 0 0 1 2.3,-13.5899997 12,12 0 0 1 0.68,-2 c 0.08,-0.2 0.16,-0.39 0.24,-0.56 a 4.75,4.75 0 0 1 0.69,-1.1 3.24,3.24 0 0 1 2.2,-1.60000002 h 0.09 v 0 a 2,2 0 0 1 1.07,0 7.6,7.6 0 0 1 3.54,1.76000002 0.42,0.42 0 0 1 0.14,0.16 40,40 0 0 1 3.25,2.51 0.63,0.63 0 0 1 0.21,0.34 c 0.43,0.47 -0.18,1.14 -0.75,0.93 l -0.59,-0.24 a 1.58,1.58 0 0 1 -2.26,0.75 10.62,10.62 0 0 1 -1.27,-0.72 14.69,14.69 0 0 1 -1.33,-0.59 64.33,64.33 0 0 0 0.27,6.6399997 c 0.08,2.79 0,5.56 -0.15,8.35 a 115.35,115.35 0 0 1 -2.17,16.46 c -1.2,5.66 -6.48,19.11 -14.67,13.7 a 2.44,2.44 0 0 1 -1,-2.7 3.58,3.58 0 0 1 1.29,-4.23 z"
     id="path1226"
     inkscape:connector-curvature="0"
     style="fill:#628c54" />
  <path
     class="cls-4"
     d="m 187.96213,43.202884 c 0,-0.11 -0.05,-0.21 -0.09,-0.31 a 0.38,0.38 0 0 0 -0.14,-0.34 h -0.06 a 1.11,1.11 0 0 0 -0.4,-0.32 4.79,4.79 0 0 0 -1.64,-1 9.58,9.58 0 0 0 -5.45,-0.84 16.22,16.22 0 0 0 -5.68,1.27 c -5.51,2.3 -9,7.09 -12.71,11.5 -0.39,0.24 -0.77,0.48 -1.14,0.67 a 21,21 0 0 1 -5.81,1.51 5.4,5.4 0 0 1 -3.4,-1.29 c -1,-1 -1.39,-3 -0.07,-3.94 l 0.06,-0.07 a 1.46,1.46 0 0 1 0.81,0 0.52,0.52 0 0 0 0.62,-0.61 1.08,1.08 0 0 0 -0.46,-0.63 0.2,0.2 0 0 0 -0.06,-0.07 1.82,1.82 0 0 0 -1.44,-0.3 0.78,0.78 0 0 0 -0.21,0 l -0.23,0.1 v 0 0 a 7.2,7.2 0 0 0 -3.19,11 c 3.59,4.68 11.33,5.87 16.81,5.55 a 28.73,28.73 0 0 0 16.95,-7 c 3.88,-3.34 8.47,-8.75 7.13,-14.22 a 0.71,0.71 0 0 0 0,-0.2 1.76,1.76 0 0 0 -0.2,-0.46 z"
     id="path1228"
     inkscape:connector-curvature="0"
     style="fill:#6faa63" />
  <path
     class="cls-2"
     d="m 194.42213,42.782884 a 8.45,8.45 0 0 0 -4.07,-1.12 c -0.8,-2.19 -2.91,-4.67 -5.15,-4.49 -2.23,-0.18 -4.34,2.3 -5.14,4.49 a 8.42,8.42 0 0 0 -4.07,1.12 2.73,2.73 0 0 0 -1,3.78 6.81,6.81 0 0 0 2.58,2.07 c -0.47,2.2 -0.5,5.41 2.1,6 a 8.13,8.13 0 0 0 3.64,-0.54 15.25,15.25 0 0 1 1.81,-0.65 h 0.2 a 14.64,14.64 0 0 1 1.81,0.65 8.15,8.15 0 0 0 3.64,0.54 c 2.61,-0.56 2.58,-3.77 2.11,-6 a 6.77,6.77 0 0 0 2.57,-2.07 2.74,2.74 0 0 0 -1.03,-3.78 z"
     id="path1230"
     inkscape:connector-curvature="0"
     style="fill:#f1f1aa" />
  <path
     class="cls-1"
     d="m 194.69213,31.802884 c -0.24,-4.7 -3.44,-8.64 -2.63,-13.49 0.64,-3.83 2.24,-7.89 5.1,-10.6099997 a 11.31,11.31 0 0 1 2.87,-2 17.79,17.79 0 0 1 7.53,-1.73 c 3.95,0.09 7.86,2 10.91,4.42 3.86,2.9999997 4.15,8.1099997 7.13,11.7499997 a 6.32,6.32 0 0 0 3.64,0.69 1.61,1.61 0 0 1 1.52,2 17.23,17.23 0 0 1 -9.86,9.25 c -0.61,1.46 -1.12,2.9 -1.62,4.45 -0.44,1.35 -1,3.27 -2.33,4 a 2.69,2.69 0 0 1 -0.62,0.22 v 0 a 1.67,1.67 0 0 1 -0.59,0.06 10.9,10.9 0 0 1 -4.13,-1.07 15.75,15.75 0 0 1 -4.29,-2.66 17.46,17.46 0 0 1 -14.61,0.24 1.61,1.61 0 0 1 -0.24,-2.53 6.39,6.39 0 0 0 2.22,-2.99 z"
     id="path1232"
     inkscape:connector-curvature="0"
     style="fill:#f4f1d7" />
  <path
     class="cls-5"
     d="m 213.81213,16.132884 c 4.57,3.46 8.27,9.89 7.18,15.8 0,0.2 -0.38,0.21 -0.41,0 a 34.2,34.2 0 0 0 -1.83,-8.11 22,22 0 0 0 -5.19,-7.35 c -0.19,-0.17 0.05,-0.5 0.25,-0.34 z"
     id="path1234"
     inkscape:connector-curvature="0"
     style="fill:#e2deba" />
  <path
     class="cls-5"
     d="m 201.16213,20.792884 c -0.86,5.68 1,12.87 5.87,16.34 0.17,0.12 0.42,-0.12 0.3,-0.29 a 33.9,33.9 0 0 1 -4.33,-7.1 21.86,21.86 0 0 1 -1.41,-8.88 c 0.01,-0.25 -0.39,-0.32 -0.43,-0.07 z"
     id="path1236"
     inkscape:connector-curvature="0"
     style="fill:#e2deba" />
  <path
     class="cls-6"
     d="m 195.75213,8.4128843 a 3.51,3.51 0 0 1 0.22,-0.75 c 0.19,-0.45 0.53,-0.8 0.76,-1.23 a 0.51,0.51 0 0 1 0.25,-0.25 11.2,11.2 0 0 1 0,-1.42 0.66,0.66 0 0 1 0.82,-0.62 c 0.71,0.2 1.4,0.41 2.1,0.64 a 6.66,6.66 0 0 1 2,-0.86 v 0 a 0.42,0.42 0 0 1 0.29,-0.05 0.44,0.44 0 0 1 0.47,0.41 c 0,0 0,0 0,0.06 a 0.28,0.28 0 0 1 0,0.13 c 0,0 0,0 0,0.06 a 0.33,0.33 0 0 1 -0.06,0.1 v 0 c 0,0 0,0.07 0,0.11 a 1.42,1.42 0 0 1 -0.23,0.42 1.32,1.32 0 0 1 0.82,0.3 0.56,0.56 0 0 1 -0.13,1 l -1.35,0.35 a 3.74,3.74 0 0 0 -1.44,0.45 c -0.29,0.27 -0.37,1 -0.5,1.35 a 14.42,14.42 0 0 1 -0.52,1.38 c -0.23,0.5099997 -1,0.3199997 -1.13,-0.15 -0.13,-0.47 -0.28,-0.9 -0.43,-1.35 l -0.13,0.08 a 4.23,4.23 0 0 1 -0.93,0.63 0.56,0.56 0 0 1 -0.88,-0.23 0.86,0.86 0 0 1 0,-0.37 0.38,0.38 0 0 1 0,-0.19 z"
     id="path1238"
     inkscape:connector-curvature="0"
     style="fill:#86bc79" />
</svg>
