<?xml version="1.0" encoding="UTF-8" standalone="no"?>
<svg
   xmlns:dc="http://purl.org/dc/elements/1.1/"
   xmlns:cc="http://creativecommons.org/ns#"
   xmlns:rdf="http://www.w3.org/1999/02/22-rdf-syntax-ns#"
   xmlns:svg="http://www.w3.org/2000/svg"
   xmlns="http://www.w3.org/2000/svg"
   xmlns:sodipodi="http://sodipodi.sourceforge.net/DTD/sodipodi-0.dtd"
   xmlns:inkscape="http://www.inkscape.org/namespaces/inkscape"
   id="Layer_1"
   data-name="Layer 1"
   viewBox="0 0 191.07328 65.131604"
   version="1.1"
   sodipodi:docname="mirabell_etoile_header-03.svg"
   width="191.07327"
   height="65.131599"
   inkscape:version="0.92.4 (5da689c313, 2019-01-14)">
  <metadata
     id="metadata1243">
    <rdf:RDF>
      <cc:Work
         rdf:about="">
        <dc:format>image/svg+xml</dc:format>
        <dc:type
           rdf:resource="http://purl.org/dc/dcmitype/StillImage" />
        <dc:title>mirabell_etoile_header</dc:title>
      </cc:Work>
    </rdf:RDF>
  </metadata>
  <sodipodi:namedview
     pagecolor="#ffffff"
     bordercolor="#666666"
     borderopacity="1"
     objecttolerance="10"
     gridtolerance="10"
     guidetolerance="10"
     inkscape:pageopacity="0"
     inkscape:pageshadow="2"
     inkscape:window-width="1815"
     inkscape:window-height="1051"
     id="namedview1241"
     showgrid="false"
     showguides="true"
     inkscape:guide-bbox="true"
     inkscape:zoom="3.6712152"
     inkscape:cx="172.46005"
     inkscape:cy="51.829368"
     inkscape:window-x="-9"
     inkscape:window-y="-9"
     inkscape:window-maximized="1"
     inkscape:current-layer="Layer_1">
    <sodipodi:guide
       position="351.15486,166.58351"
       orientation="1,0"
       id="guide1794"
       inkscape:locked="false" />
    <sodipodi:guide
       position="142.17948,78.527045"
       orientation="1,0"
       id="guide1806"
       inkscape:locked="false" />
    <sodipodi:guide
       position="191.77614,107.03306"
       orientation="1,0"
       id="guide1808"
       inkscape:locked="false" />
    <sodipodi:guide
       position="142.00244,77.737682"
       orientation="1,0"
       id="guide1810"
       inkscape:locked="false" />
  </sodipodi:namedview>
  <defs
     id="defs1166">
    <style
       id="style1164">.cls-1{fill:#f4f1d7;}.cls-2{fill:#f1f1aa;}.cls-3{fill:#628c54;}.cls-4{fill:#6faa63;}.cls-5{fill:#e2deba;}.cls-6{fill:#86bc79;}.cls-7{fill:#557a47;}</style>
  </defs>
  <title
     id="title1168">mirabell_etoile_header</title>
  <path
     class="cls-1"
     d="m 126.66408,22.242938 c -0.81981,0.858126 -4.29059,5.478169 -5.47817,5.23299 0.29115,0.06129 2.65098,-5.907217 3.00342,-6.895591 0.76617,-2.068682 2.29853,-7.163755 -0.49802,-8.496901 -1.9231,-0.919415 -4.48214,0.47503 -6.12942,1.861807 0.45205,-2.919139 -0.14557,-5.1487107 -2.88848,-5.3632407 -2.49008,-0.191544 -4.7503,1.7851927 -6.30564,3.8308887 a 10.795438,10.795438 0 0 0 -0.45205,-2.1453 A 7.5621698,7.5621698 0 0 0 96.637594,6.3524253 C 93.25109,8.4134433 89.741998,15.301375 93.38134,18.611258 a 5.2406526,5.2406526 0 0 0 0.996031,0.697223 c 1.179913,1.179912 4.405519,0.337124 5.455181,-0.47503 1.731558,-1.317818 1.869478,-4.305916 -0.07662,-5.485828 a 0.2834856,0.2834856 0 0 0 -0.17622,0 0.76617729,0.76617729 0 0 0 -0.421397,-0.09963 0.43672106,0.43672106 0 0 0 -0.47503,0.275823 0.89642743,0.89642743 0 0 0 -0.137912,0.183889 1.9307668,1.9307668 0 0 1 -0.704884,0.551648 1.0573246,1.0573246 0 0 1 -0.766177,0 h -0.02299 -0.08428 l -0.122588,-0.06129 a 1.0420011,1.0420011 0 0 1 -0.712545,-0.835129 1.68559,1.68559 0 0 1 0.467368,-1.233553 c 1.179913,-2.4057957 3.800243,-4.0683967 6.543153,-2.7122627 2.35216,1.1492657 2.12997,5.0184647 2.03803,7.7460567 -0.10726,0.41373 -0.15323,0.842788 -0.28348,1.256528 -1.57067,3.248594 -2.94212,6.612109 -4.59707,9.799403 -0.766174,1.455732 1.3638,2.712261 2.19893,1.28717 1.75455,-3.003412 3.95348,-6.895587 5.10274,-10.818418 a 36.132921,36.132921 0 0 1 2.57436,-4.106709 c 0.76617,-1.034336 2.90381,-3.830886 4.33656,-1.700914 0.58996,0.896429 -0.76618,4.014775 -1.18757,5.11041 a 46.361387,46.361387 0 0 1 -2.35217,5.363239 c -0.76617,1.478721 -1.53235,2.942115 -2.35216,4.305916 -0.91175,1.532349 1.44807,2.919126 2.41346,1.402101 0.29881,-0.47503 0.83513,-1.363798 1.4634,-2.513065 2.7046,-4.597057 8.05252,-13.170585 9.65383,-10.986972 1.11096,1.532352 -2.29853,7.508537 -2.75058,8.627149 a 10.343393,10.343393 0 0 0 -1.042,3.348197 c 0.10727,1.53235 0.91175,2.773561 2.68162,2.459424 l 0.72021,-0.160893 c 2.6663,-1.087977 4.86522,-4.367213 6.12942,-6.596788 a 0.82747147,0.82747147 0 0 0 -1.22589,-0.996033 z"
     id="path1170"
     inkscape:connector-curvature="0"
     style="fill:#f4f1d7;stroke-width:0.7661773" />
  <path
     class="cls-1"
     d="m 133.16126,26.15811 a 0.38308864,0.38308864 0 0 0 -0.38309,0 9.9603047,9.9603047 0 0 0 -0.99603,1.12628 c -0.521,0.283483 -1.21822,0.528661 -1.46339,-0.11493 a 2.2219141,2.2219141 0 0 1 -0.0613,-1.019019 30.057135,30.057135 0 0 1 1.34081,-2.834854 c 0.28348,-0.620595 0.37542,-1.072649 -0.22986,-1.532352 a 0.30647091,0.30647091 0 0 0 -0.28348,-0.04599 0.34477978,0.34477978 0 0 0 -0.22219,0.06894 h -0.0536 c 0,0 0,0 0,0 v 0 0 0 l -0.046,0.04599 -0.13792,0.176221 c 0,0 0,0 0,0 l -0.069,0.107261 c -1.53235,1.723901 -4.37487,6.596778 -1.31782,7.746045 a 3.6623275,3.6623275 0 0 0 3.77725,-1.279515 c 0.35244,-0.429055 1.04967,-1.930762 0.14558,-2.444096 z"
     id="path1172"
     inkscape:connector-curvature="0"
     style="fill:#f4f1d7;stroke-width:0.7661773" />
  <path
     class="cls-2"
     d="m 134.16496,18.059611 -0.51334,-0.160893 c -0.18389,-0.543988 -0.4214,-1.195239 -1.01136,-1.256528 a 1.0573246,1.0573246 0 0 0 -0.76617,0.344782 c -0.20687,0.168551 -0.40608,0.35244 -0.60528,0.536319 a 3.2332681,3.2332681 0 0 0 -1.47873,0.275824 c -0.89642,0.482689 -0.0843,1.317829 0.48269,1.800517 a 6.8955956,6.8955956 0 0 1 -0.7202,0.919416 0.41373573,0.41373573 0 0 0 -0.10727,0.23751 0.3677651,0.3677651 0 0 0 0,0.344782 0.52100056,0.52100056 0 0 0 0.19155,0.17622 0.43672106,0.43672106 0 0 0 0.36776,0.107262 10.841408,10.841408 0 0 0 1.76221,-0.41373 l 0.39075,0.390744 c 0.29881,0.291151 0.66658,0.689564 1.13394,0.612947 0.69723,-0.130248 0.66658,-1.026677 0.51334,-1.831162 0.26816,-0.137917 0.53633,-0.283493 0.76618,-0.436727 0.91941,-0.597619 0.45971,-1.325487 -0.40607,-1.647283 z"
     id="path1174"
     inkscape:connector-curvature="0"
     style="fill:#f1f1aa;stroke-width:0.7661773" />
  <path
     class="cls-1"
     d="m 141.88036,23.047433 c -0.91941,-1.417432 -2.62799,-0.865785 -3.86919,-0.160903 a 2.1452964,2.1452964 0 0 0 -1.87714,-1.087967 2.6509734,2.6509734 0 0 0 -1.57832,0.827471 0.92707451,0.92707451 0 0 0 -0.12259,0.122589 l -0.0536,0.06894 a 1.3867808,1.3867808 0 0 0 -0.13791,0.160903 0.76617729,0.76617729 0 0 0 -0.20687,0.344772 v 0 a 0.42139751,0.42139751 0 0 0 -0.0383,0.229861 0.49801524,0.49801524 0 0 0 0,0.23751 0.29114737,0.29114737 0 0 0 0.14557,0.214534 v 0 0 a 0.52100056,0.52100056 0 0 0 0.41374,0.04599 l 0.42906,-0.130248 h 0.19154 c 0.15324,0.08434 0.2605,0.314137 0.38309,0.927074 a 1.6242958,1.6242958 0 0 1 0,0.390755 2.6356499,2.6356499 0 0 0 -0.10726,0.658909 c -0.046,0.199206 -0.0996,0.390754 -0.14558,0.559316 -0.26816,0.881102 -0.6819,1.700914 -0.90409,2.59733 0,0 0,0 0,0 0,0 0,0.06129 0,0.09963 a 0.3677651,0.3677651 0 0 0 0,0.130258 c 0,0 0,0 0,0 0,0.444375 0.28349,0.873433 0.76618,0.804485 0.37543,-0.05364 0.76618,-0.452044 1.03434,-0.934743 0.26816,-0.482689 0.45204,-1.080305 0.7202,-1.608967 a 18.878608,18.878608 0 0 1 1.31017,-2.681619 c 0.52866,-0.727867 1.81584,-0.996032 1.90012,0.168562 a 0.27582383,0.27582383 0 0 1 -0.069,0.206865 l -0.0766,0.09963 -0.13025,0.17622 a 0.29114737,0.29114737 0 0 0 -0.0536,0.275824 v 0.06129 c 0,0 0,0 0,0 v 0 a 0.40607396,0.40607396 0 0 0 0,0.09199 0.67423601,0.67423601 0 0 0 0,0.153234 0.26816206,0.26816206 0 0 0 0.0613,0.09963 0.37542687,0.37542687 0 0 0 0.21453,0.252838 0.92707451,0.92707451 0 0 0 0.15323,0.107272 c 0.6819,0.283482 1.17991,-0.252848 1.47872,-0.980716 a 2.5896792,2.5896792 0 0 0 0.16856,-2.528374 z"
     id="path1176"
     inkscape:connector-curvature="0"
     style="fill:#f4f1d7;stroke-width:0.7661773" />
  <path
     class="cls-1"
     d="m 153.77909,27.330352 a 3.1260033,3.1260033 0 0 0 -0.0536,-0.58995 0.38308864,0.38308864 0 0 0 -0.76617,0 2.2065906,2.2065906 0 0 1 -0.4214,0.996032 1.9843992,1.9843992 0 0 1 -0.13791,0.160893 l -0.26817,0.130248 a 2.3521642,2.3521642 0 0 1 -0.69722,-0.199206 0.49035346,0.49035346 0 0 1 -0.046,-0.107262 3.4477978,3.4477978 0 0 0 0.4214,-2.658633 4.4361665,4.4361665 0 0 0 -1.3025,-2.398137 0.72020664,0.72020664 0 0 0 -0.069,-0.09188 c -0.93474,-1.064994 -2.83486,-1.026681 -4.08373,-0.390758 a 2.7888853,2.7888853 0 0 0 -0.43672,0.191548 5.5088147,5.5088147 0 0 0 -2.56669,2.91147 c -0.69722,1.601311 -0.43672,3.73128 1.3025,4.512779 a 4.5970637,4.5970637 0 0 0 4.45915,-0.605279 2.9421208,2.9421208 0 0 0 2.29853,0.911747 2.428782,2.428782 0 0 0 1.39445,-0.367758 v 0 a 2.597341,2.597341 0 0 0 0.50567,-0.41374 1.6626047,1.6626047 0 0 0 0.47503,-1.241209 2.5207233,2.5207233 0 0 0 -0.008,-0.750854 z m -8.06018,-1.716231 a 3.1566504,3.1566504 0 0 1 1.17991,-1.639624 1.7622077,1.7622077 0 0 1 2.39814,0.298809 c 0.69722,1.026678 0.17622,2.750578 -0.85046,3.493773 a 2.428782,2.428782 0 0 1 -2.81953,-0.881102 1.7238989,1.7238989 0 0 1 -0.11493,-0.47503 2.0840022,2.0840022 0 0 1 0.20687,-0.796826 z"
     id="path1178"
     inkscape:connector-curvature="0"
     style="fill:#f4f1d7;stroke-width:0.7661773" />
  <path
     class="cls-1"
     d="m 159.95448,20.580337 a 0.29114737,0.29114737 0 0 0 0,-0.07659 15.024737,15.024737 0 0 0 0.65125,-1.777531 c 0.25284,-0.612937 0.46737,-1.210557 0.61295,-1.662601 a 8.5965092,8.5965092 0 0 0 0,-5.64673 c -1.14927,-3.2256067 -3.40183,-5.8842417 -7.10247,-4.9035347 -2.71993,0.727869 -3.93815,4.3289007 -2.78122,6.7883277 a 2.6892823,2.6892823 0 0 0 2.75058,1.677928 v 0 a 0.38308864,0.38308864 0 0 0 0.26816,-0.04599 l 0.16089,-0.107262 a 1.9614138,1.9614138 0 0 0 0.52101,-0.337113 1.6013106,1.6013106 0 0 0 0.42139,-0.429058 l 0.069,-0.08423 a 2.4900762,2.4900762 0 0 0 0.45971,-1.425094 c 0,-0.390745 -0.43672,-0.467362 -0.65125,-0.245179 -1.02668,0.47503 -2.70461,0 -2.34451,-1.287174 0,-0.05364 0,-0.09963 0.0536,-0.153234 a 2.5053998,2.5053998 0 0 1 2.96511,-0.643592 l 0.18388,0.09963 a 2.8961502,2.8961502 0 0 1 2.01505,2.788891 24.195879,24.195879 0 0 1 -0.6206,5.547117 c -0.10727,0.582303 -0.22986,1.149267 -0.36011,1.723901 a 0.26816206,0.26816206 0 0 0 0,0.06129 c -0.0613,0.23751 -0.13791,0.482689 -0.20687,0.720199 -0.49801,1.716242 -1.06498,3.401828 -1.53235,5.110401 -0.33712,0.88877 -0.68956,1.769872 -1.08031,2.635654 v 0 l -0.069,0.160893 a 0.36010333,0.36010333 0 0 0 0,0.383085 c 0.76618,1.110964 3.40949,0.459713 4.44383,0.06129 a 7.6617729,7.6617729 0 0 0 4.20631,-3.830883 c 1.15693,-2.750578 -0.65891,-4.773288 -3.03406,-5.102742 z m -1.79285,6.458874 v -0.130248 c 0.39841,-1.110963 0.76618,-2.244902 1.07265,-3.38651 a 1.7238989,1.7238989 0 0 1 0.76617,0.23752 c 0.65892,0.444385 1.1033,1.90012 0.42906,2.551371 a 3.5627244,3.5627244 0 0 1 -2.26788,0.727867 z"
     id="path1180"
     inkscape:connector-curvature="0"
     style="fill:#f4f1d7;stroke-width:0.7661773" />
  <path
     class="cls-1"
     d="m 173.92189,26.993239 a 1.2488689,1.2488689 0 0 0 -0.91175,-0.850457 1.4327515,1.4327515 0 0 0 -0.76618,-0.206865 0.69722133,0.69722133 0 0 0 -0.65125,0.191538 0.42139751,0.42139751 0 0 0 -0.0766,0.08434 0.40607396,0.40607396 0 0 0 -0.15323,0.505675 3.4018272,3.4018272 0 0 0 0.29114,0.513333 c -0.1992,1.126281 -1.68559,1.486387 -2.88082,1.425088 a 1.8847961,1.8847961 0 0 1 -1.34081,-1.064978 c 1.40976,-0.467372 4.01477,-1.294843 4.40552,-2.988098 a 0.60528006,0.60528006 0 0 0 0,-0.06894 l 0.046,-0.168562 a 0.58229474,0.58229474 0 0 0 0,-0.114931 c 0.26816,-0.873443 -0.82747,-1.754534 -1.53236,-2.091658 a 3.708298,3.708298 0 0 0 -0.46737,-0.168561 3.8308864,3.8308864 0 0 0 -2.12231,-0.214524 3.1489887,3.1489887 0 0 0 -1.19523,0.398413 v 0 c -2.29853,1.402094 -3.78492,5.033783 -1.53236,6.688722 1.05733,1.164584 3.25626,1.440408 5.04145,1.202898 a 4.2982546,4.2982546 0 0 0 2.95744,-0.881102 2.3751496,2.3751496 0 0 0 0.88877,-2.191269 z m -5.9532,-2.834853 c 0.45971,-0.260506 2.45177,-0.766181 2.07635,0.291141 -0.16856,0.490357 -1.42509,0.842798 -1.89246,1.064991 l -1.53235,0.766181 a 2.9497826,2.9497826 0 0 1 1.34846,-2.122313 z"
     id="path1182"
     inkscape:connector-curvature="0"
     style="fill:#f4f1d7;stroke-width:0.7661773" />
  <path
     class="cls-1"
     d="m 179.82145,25.652425 a 0.35244156,0.35244156 0 0 0 0.046,0.559316 0.38308864,0.38308864 0 0 0 0.26051,0.122589 c 0.57463,0 0.31413,1.164584 0.22219,1.455735 a 1.7468842,1.7468842 0 0 1 -0.55164,0.766168 v 0 c -2.29854,0.543989 -2.93447,-0.980702 -2.84253,-2.551368 a 4.7273138,4.7273138 0 0 1 0.14558,-0.873433 v 0 c 1.17991,-3.026401 3.88452,-6.328626 4.59707,-9.730454 a 7.2940078,7.2940078 0 0 0 0.498,-2.980429 c 0,-0.09198 0,-0.17622 0,-0.268165 v 0 a 5.5088147,5.5088147 0 0 0 -0.046,-0.597619 8.3053618,8.3053618 0 0 0 -0.76617,-2.5820127 2.9804296,2.9804296 0 0 0 -3.14133,-2.298532 3.9075041,3.9075041 0 0 0 -3.45546,3.4094917 1.9460903,1.9460903 0 0 0 1.90779,2.313851 c 0.35244,0 0.44438,-0.352441 0.29114,-0.589951 v 0 a 1.0573246,1.0573246 0 0 1 -0.46737,-0.635933 1.0879718,1.0879718 0 0 1 0.27583,-1.026677 h 0.046 l 0.11493,-0.07659 a 1.4097662,1.4097662 0 0 1 1.21822,-0.07659 2.6969441,2.6969441 0 0 1 1.13394,0.996032 7.6617729,7.6617729 0 0 1 0.22219,2.949784 c 0,0.160893 -0.0766,0.321796 -0.12259,0.482689 -0.046,0.160893 -0.046,0.252838 -0.0766,0.383086 a 12.074954,12.074954 0 0 1 -1.08796,3.133663 c -1.17226,2.566698 -2.66631,4.888218 -3.62403,7.531524 a 5.7999621,5.7999621 0 0 0 -0.13791,0.95006 3.8308864,3.8308864 0 0 0 0.3601,2.367489 0.42905928,0.42905928 0 0 0 0.10727,0.122589 c 0.88876,1.386777 3.42481,1.379118 4.81926,1.164584 a 2.7582383,2.7582383 0 0 0 2.52838,-2.903808 1.1645895,1.1645895 0 0 0 0,-0.160893 c 0.092,-1.218225 -1.563,-2.267889 -2.47475,-1.356142 z"
     id="path1184"
     inkscape:connector-curvature="0"
     style="fill:#f4f1d7;stroke-width:0.7661773" />
  <path
     class="cls-1"
     d="m 188.5712,25.652425 a 0.36010333,0.36010333 0 0 0 0.0536,0.559316 0.3677651,0.3677651 0 0 0 0.2605,0.122589 c 0.56697,0 0.30648,1.164584 0.21453,1.455735 a 1.7315607,1.7315607 0 0 1 -0.54398,0.766168 v 0 c -2.29854,0.543989 -2.94212,-0.980702 -2.84252,-2.551368 a 4.7196521,4.7196521 0 0 1 0.13791,-0.873433 v 0 c 1.18758,-3.026401 3.89219,-6.328626 4.59707,-9.730454 a 7.286346,7.286346 0 0 0 0.49035,-2.980429 c 0,-0.09198 0,-0.17622 0,-0.268165 v 0 c 0,-0.191537 0,-0.390744 -0.046,-0.597619 a 8.3053618,8.3053618 0 0 0 -0.76617,-2.5820127 2.9880914,2.9880914 0 0 0 -3.149,-2.298532 3.8998424,3.8998424 0 0 0 -3.4478,3.4094917 1.9460903,1.9460903 0 0 0 1.93844,2.352165 c 0.35244,0 0.44437,-0.352441 0.28348,-0.589961 v 0 a 1.0496629,1.0496629 0 0 1 -0.4597,-0.635923 1.0649864,1.0649864 0 0 1 0.26815,-1.026678 h 0.046 l 0.11493,-0.07659 a 1.4250897,1.4250897 0 0 1 1.22589,-0.07659 2.7429146,2.7429146 0 0 1 1.13394,0.996023 8.0218762,8.0218762 0 0 1 0.22219,2.949784 c 0,0.160903 -0.0842,0.321796 -0.13025,0.482689 a 3.677651,3.677651 0 0 1 -0.0689,0.383095 12.097939,12.097939 0 0 1 -1.09564,3.133664 c -1.16458,2.566698 -2.66629,4.888208 -3.62402,7.531523 a 5.0567701,5.0567701 0 0 0 -0.13024,0.950061 3.7466069,3.7466069 0 0 0 0.3601,2.367478 0.32179446,0.32179446 0 0 0 0.0996,0.12259 c 0.89642,1.386777 3.42481,1.379118 4.81925,1.164594 a 2.7582383,2.7582383 0 0 0 2.53605,-2.903809 1.1645895,1.1645895 0 0 1 0,-0.160903 c 0.0766,-1.256528 -1.58598,-2.306192 -2.49773,-1.394445 z"
     id="path1186"
     inkscape:connector-curvature="0"
     style="fill:#f4f1d7;stroke-width:0.7661773" />
  <path
     class="cls-1"
     d="m 132.76315,58.364209 a 4.2369604,4.2369604 0 0 0 -3.29456,-2.09167 2.8425177,2.8425177 0 0 0 -3.01874,1.73923 2.0763404,2.0763404 0 0 0 0.65125,2.84251 0.36010333,0.36010333 0 0 0 0.521,-0.16089 0.97304516,0.97304516 0 0 1 -0.22985,-0.72021 v -0.046 a 0.38308864,0.38308864 0 0 1 0.0383,-0.0996 0.63592714,0.63592714 0 0 1 0.046,-0.1609 0.99603047,0.99603047 0 0 1 0.84279,-0.76618 1.5323546,1.5323546 0 0 1 0.81215,0.0766 1.1952365,1.1952365 0 0 1 0.92707,0.71254 c 0.31414,0.69722 -0.19154,1.14926 -0.76617,1.44042 a 7.2710225,7.2710225 0 0 1 -0.76618,0.47502 4.014769,4.014769 0 0 1 -0.52866,0.21453 l -0.11493,0.046 a 7.2940078,7.2940078 0 0 1 -0.99603,0.25284 15.607031,15.607031 0 0 1 -2.79655,0.19155 13.553676,13.553676 0 0 1 -6.70405,-1.586 4.5357695,4.5357695 0 0 1 -1.24887,-1.77753 9.0638773,9.0638773 0 0 1 1.83117,-4.59705 7.8686408,7.8686408 0 0 0 1.34081,0.34477 c 0.2605,0.0536 0.521,0.092 0.76617,0.13026 a 10.167173,10.167173 0 0 0 2.67396,0.22985 c 1.43276,-0.0996 3.9688,-0.67424 4.59707,-2.21426 a 1.8158402,1.8158402 0 0 0 -0.65892,-2.14529 3.0187385,3.0187385 0 0 0 -1.01135,-0.71255 l -0.13791,-0.0613 a 3.5244156,3.5244156 0 0 0 -1.21822,-0.43673 c -1.93077,-0.32945 -4.21398,0.40608 -6.19072,1.6856 -1.57066,-0.98071 -1.17225,-3.66233 -0.45204,-5.15637 a 15.630016,15.630016 0 0 0 1.8848,0.7202 9.1021862,9.1021862 0 0 0 7.99122,-0.13025 c 2.25257,-0.70488 4.13736,-1.96141 3.56273,-4.03009 a 4.4361665,4.4361665 0 0 0 -1.79286,-2.09933 c -1.08797,-1.011349 -2.63565,-1.256519 -4.21397,-1.310149 a 0.31413269,0.31413269 0 0 0 -0.19155,0.0613 10.45832,10.45832 0 0 0 -3.11834,0.17621 9.615525,9.615525 0 0 0 -3.50143,1.149269 l -0.16089,0.0536 -0.069,0.0613 -0.72787,0.36777 a 0.97304516,0.97304516 0 0 0 -0.0919,0.0766 3.8308864,3.8308864 0 0 0 -0.58996,0.40607 5.363241,5.363241 0 0 0 -0.53632,0.56698 l -0.64358,-0.52857 a 0.3677651,0.3677651 0 0 1 -0.26816,-0.23751 16.8559,16.8559 0 0 0 -2.25257,-1.731559 7.8839643,7.8839643 0 0 0 -3.72362,-0.482689 11.247483,11.247483 0 0 0 -1.80818,0.291149 8.228744,8.228744 0 0 0 -0.85045,0.37542 c -1.61664,0.681889 -2.96511,1.800519 -3.11068,3.616359 -0.17622,2.3445 1.90012,4.22163 4.16034,4.38253 a 3.9841219,3.9841219 0 0 0 2.39047,-0.76618 5.7693149,5.7693149 0 0 0 1.99973,-2.00738 0.67423601,0.67423601 0 0 0 0,-0.76618 c 0,0 0,-0.0689 0,-0.0996 h -0.20687 l -0.16856,0.0996 a 1.9843992,1.9843992 0 0 1 -1.37912,0.27582 1.1952365,1.1952365 0 0 1 -1.04966,-0.41373 v 0 a 0.7048831,0.7048831 0 0 1 -0.14558,-0.81215 c 0.21453,-0.76617 1.63196,-1.22588 2.33684,-0.86578 a 0.76617729,0.76617729 0 0 1 0.42906,0.20687 v 0 a 7.9146113,7.9146113 0 0 0 0.88111,0.62061 l 0.13025,0.10726 h 0.0383 l 0.40607,0.26816 a 0.32945623,0.32945623 0 0 1 0,0.0536 l 0.6206,0.40608 c 0.26817,0.1992 0.51334,0.37542 0.76618,0.54398 a 6.4129039,6.4129039 0 0 0 -1.24121,4.82692 5.9148887,5.9148887 0 0 0 1.95376,3.53208 10.450658,10.450658 0 0 0 -3.37118,3.24859 c -0.76618,1.25653 -1.17226,3.23327 -0.45971,4.59706 0.33712,1.21057 1.48638,1.73923 2.58968,2.19893 a 12.841131,12.841131 0 0 0 4.82692,1.04966 c 0.31413,0.0613 0.62826,0.11493 0.94239,0.15324 h 0.0536 0.0996 a 0.31413269,0.31413269 0 0 0 0.2605,-0.0842 20.763404,20.763404 0 0 0 5.03379,-0.17622 10.090555,10.090555 0 0 0 5.94553,-2.01505 4.9648288,4.9648288 0 0 0 0.83514,-0.90409 2.3445025,2.3445025 0 0 0 0.76618,-1.63961 1.6396194,1.6396194 0 0 0 -0.14558,-1.04201 z m -12.92541,-6.12942 a 10.312746,10.312746 0 0 1 4.1297,-1.14159 2.5360468,2.5360468 0 0 1 1.43275,0.76617 0.91175097,0.91175097 0 0 1 0,0.25283 0.66657424,0.66657424 0 0 1 -0.11493,0.54399 7.1637576,7.1637576 0 0 1 -2.85784,0.65891 5.7693149,5.7693149 0 0 1 -2.97277,-0.76617 c 0.15324,-0.10727 0.26816,-0.21453 0.38309,-0.30648 z m 2.47475,-10.91036 a 5.8152856,5.8152856 0 0 1 3.06471,0.49036 c 1.7239,0.86577 0.98071,2.10698 -0.18388,2.92679 a 4.788608,4.788608 0 0 1 -1.57833,0.14558 10.473643,10.473643 0 0 1 -2.14529,-0.27582 23.391392,23.391392 0 0 1 -3.01874,-1.07265 14.787222,14.787222 0 0 1 3.86153,-2.20659 z"
     id="path1188"
     inkscape:connector-curvature="0"
     style="fill:#f4f1d7;stroke-width:0.7661773" />
  <path
     class="cls-2"
     d="m 129.63715,34.658702 a 3.0647091,3.0647091 0 0 0 0,-0.459702 c -0.0536,-0.566975 -0.33712,-0.988374 -0.76618,-1.019019 a 0.36010333,0.36010333 0 0 0 -0.38309,0.09963 1.5323546,1.5323546 0 0 0 -0.29115,0.229851 c -0.47503,0.498016 -0.65891,1.172253 -1.17991,1.662601 a 4.0684014,4.0684014 0 0 1 -2.57435,1.064991 0.62826537,0.62826537 0 0 0 -0.41374,0.881101 3.7159599,3.7159599 0 0 0 2.1836,0.367769 3.6699892,3.6699892 0 0 0 2.75824,-1.057323 2.3904731,2.3904731 0 0 0 0.66658,-1.769872 z"
     id="path1190"
     inkscape:connector-curvature="0"
     style="fill:#f1f1aa;stroke-width:0.7661773" />
  <path
     class="cls-1"
     d="m 138.5248,55.506369 c 2.29854,0 5.73101,-0.61294 4.45149,-3.06471 a 0.29880914,0.29880914 0 0 0 -0.23751,-0.16089 v 0 l -0.0613,-0.0384 a 0.39075041,0.39075041 0 0 0 -0.49802,0.11493 5.7233444,5.7233444 0 0 1 -2.35216,0.3218 52.146026,52.146026 0 0 0 2.45943,-7.09481 c 0.49801,-1.86946 0.62826,-4.16034 -1.58599,-4.90352 -1.91544,-0.6436 -3.53208,0.76617 -4.13736,2.48241 a 0.32945623,0.32945623 0 0 0 0,0.26049 v 0.046 a 0.32179446,0.32179446 0 0 0 0.47503,0.3601 c 0.88877,-0.57464 1.97674,-1.15693 2.73526,-1.03434 0,3.66999 -1.79286,6.8956 -3.14899,10.3204 a 5.8765798,5.8765798 0 0 1 -3.39417,-0.72786 0.30647091,0.30647091 0 0 1 -0.1992,-0.10726 v -0.0537 a 0.39841219,0.39841219 0 0 1 -0.0919,-0.13024 0.95772161,0.95772161 0 0 1 -0.12259,-0.25284 1.3025014,1.3025014 0 0 1 -0.19921,-0.29115 0.35244156,0.35244156 0 0 1 0,-0.39842 1.3867808,1.3867808 0 0 1 0.60528,-1.18757 0.37542687,0.37542687 0 0 0 -0.046,-0.27582 0.39841219,0.39841219 0 0 0 -0.7202,-0.19155 c -0.76618,1.18757 -1.38678,2.5054 -0.38309,3.76193 a 5.8382709,5.8382709 0 0 0 2.80421,1.64728 0.50567701,0.50567701 0 0 0 0,0.10727 7.7154052,7.7154052 0 0 1 0.98837,0.23752 c -0.90409,2.59734 -2.1453,6.73469 -0.23752,8.6578 a 0.26816206,0.26816206 0 0 0 0.13791,0.0842 1.4633987,1.4633987 0 0 0 0.34478,0.17623 0.47502992,0.47502992 0 0 0 0.23752,0.0996 h 0.1609 0.023 a 1.2335454,1.2335454 0 0 1 0.16855,0 h 0.18389 0.10726 a 3.3481948,3.3481948 0 0 0 1.53236,-0.14558 4.6583579,4.6583579 0 0 0 2.99575,-3.23326 0.7048831,0.7048831 0 0 0 -1.35613,-0.37543 c -0.28349,1.03434 -1.41743,2.605 -2.7276,2.22958 -1.31016,-0.37543 -0.76617,-2.49008 -0.521,-3.35586 a 21.000919,21.000919 0 0 1 1.60898,-3.88452 z"
     id="path1192"
     inkscape:connector-curvature="0"
     style="fill:#f4f1d7;stroke-width:0.7661773" />
  <path
     class="cls-1"
     d="m 152.44625,58.348889 a 0.20686787,0.20686787 0 0 0 0,-0.12258 v 0 a 0.22219141,0.22219141 0 0 0 -0.069,-0.16091 0.26816206,0.26816206 0 0 0 -0.521,0 0.63592714,0.63592714 0 0 1 -0.11493,0.16091 0.45970637,0.45970637 0 0 0 -0.0613,0.0613 2.0686787,2.0686787 0 0 1 -0.20687,0.29881 2.5130615,2.5130615 0 0 1 -0.71255,0.521 1.5323546,1.5323546 0 0 1 -0.37542,0.11492 3.3941654,3.3941654 0 0 0 -0.45971,-1.63962 h 0.0843 v 0 l 0.069,-0.046 a 0.49035346,0.49035346 0 0 0 0.18388,-0.19155 c 0,0 0,-0.0613 0,-0.0842 a 0.68955956,0.68955956 0 0 0 -0.22985,-0.9424 1.0956335,1.0956335 0 0 0 -1.02668,-0.27583 2.4441056,2.4441056 0 0 0 -0.76617,0.2222 4.5970637,4.5970637 0 0 0 -4.29826,1.41743 3.1566504,3.1566504 0 0 0 -0.90409,1.48638 3.4707831,3.4707831 0 0 0 0.36777,3.36352 2.7046058,2.7046058 0 0 0 0.70488,0.91941 v 0 a 2.7659,2.7659 0 0 0 1.15693,0.76618 0.26816206,0.26816206 0 0 0 0.10726,0 3.608695,3.608695 0 0 0 1.13395,0.18388 3.4477978,3.4477978 0 0 0 2.83485,-1.44808 5.363241,5.363241 0 0 0 0.5823,-1.07264 v 0 c 0.10726,-0.32946 0.21453,-0.65892 0.29881,-0.99603 v 0 c 0,-0.092 0,-0.17622 0.0536,-0.26051 a 2.4670908,2.4670908 0 0 0 1.04966,-0.67423 c 0,0 0,0 0,-0.046 a 2.9114737,2.9114737 0 0 0 0.72787,-0.98837 2.6662969,2.6662969 0 0 0 0.2605,-0.39075 0.13791191,0.13791191 0 0 0 0,-0.0842 z m -3.95348,2.49774 a 4.9035346,4.9035346 0 0 1 -0.81981,1.25652 5.8152856,5.8152856 0 0 1 -0.76618,0.56698 1.2335454,1.2335454 0 0 1 -1.3025,-0.29881 c -1.17225,-1.01902 -0.54398,-2.9268 0.47503,-3.76193 a 2.8578413,2.8578413 0 0 1 0.59762,-0.36777 2.1989288,2.1989288 0 0 0 1.42509,2.3675 l 0.28348,0.0766 0.13026,0.13025 a 0.04597064,0.04597064 0 0 0 -0.023,0.0307 z m -0.22985,-1.77754 -0.046,-0.0689 a 0.93473629,0.93473629 0 0 1 0.29881,-0.96538 2.7888853,2.7888853 0 0 1 0.31413,1.40976 1.2871778,1.2871778 0 0 1 -0.56697,-0.37543 z"
     id="path1194"
     inkscape:connector-curvature="0"
     style="fill:#f4f1d7;stroke-width:0.7661773" />
  <path
     class="cls-1"
     d="m 157.64093,60.264329 a 0.39841219,0.39841219 0 0 0 -0.39075,0 9.2860687,9.2860687 0 0 0 -0.98837,1.12628 c -0.52866,0.28349 -1.21822,0.52867 -1.4634,-0.11493 a 2.2219141,2.2219141 0 0 1 -0.0613,-1.01901 29.589767,29.589767 0 0 1 1.33315,-2.83486 c 0.29114,-0.62826 0.37542,-1.07264 -0.22219,-1.53235 a 0.30647091,0.30647091 0 0 0 -0.28349,-0.046 0.30647091,0.30647091 0 0 0 -0.22219,0.0689 0.13791191,0.13791191 0 0 0 -0.0536,0 v 0 h -0.0383 v 0 h -0.0536 l -0.13025,0.18388 c 0,0 0,0 0,0 l -0.069,0.10728 c -1.53236,1.71623 -4.36721,6.59678 -1.31016,7.74604 1.29483,0.48269 2.94978,-0.26049 3.77725,-1.27951 0.38309,-0.39076 1.07265,-1.90012 0.17622,-2.4058 z"
     id="path1196"
     inkscape:connector-curvature="0"
     style="fill:#f4f1d7;stroke-width:0.7661773" />
  <path
     class="cls-2"
     d="m 158.64462,52.165829 -0.521,-0.16089 c -0.18388,-0.54399 -0.4214,-1.19524 -1.00369,-1.25653 a 1.08031,1.08031 0 0 0 -0.76618,0.33712 l -0.61294,0.54399 a 3.1949592,3.1949592 0 0 0 -1.47106,0.27582 c -0.89643,0.48269 -0.0919,1.31783 0.47503,1.80052 a 6.8955956,6.8955956 0 0 1 -0.71255,0.91941 0.35244156,0.35244156 0 0 0 -0.10726,0.23751 0.3677651,0.3677651 0 0 0 0,0.34478 0.7048831,0.7048831 0 0 0 0.55931,0.28349 11.224497,11.224497 0 0 0 1.7622,-0.41373 l 0.39075,0.39074 c 0.29115,0.29115 0.65892,0.68956 1.12629,0.60528 0.70488,-0.12258 0.66657,-1.01901 0.521,-1.8235 0.2605,-0.14557 0.52866,-0.28349 0.76617,-0.43672 0.91942,-0.59762 0.46737,-1.32549 -0.40607,-1.64729 z"
     id="path1198"
     inkscape:connector-curvature="0"
     style="fill:#f1f1aa;stroke-width:0.7661773" />
  <path
     class="cls-1"
     d="m 164.42159,59.812289 a 0.36010333,0.36010333 0 0 0 0.0536,0.55931 0.3677651,0.3677651 0 0 0 0.2605,0.12258 c 0.57464,0 0.31414,1.1646 0.21453,1.45574 a 1.7162372,1.7162372 0 0 1 -0.54398,0.76618 h -0.0383 c -2.29853,0.54399 -2.93446,-0.9807 -2.84252,-2.55137 a 4.9188582,4.9188582 0 0 1 0.14558,-0.8811 v 0 c 1.17991,-3.01874 3.88451,-6.32863 4.59706,-9.7228 a 7.3246548,7.3246548 0 0 0 0.49801,-2.98808 c 0,-0.0842 0,-0.17623 0,-0.2605 v 0 a 5.363241,5.363241 0 0 0 -0.046,-0.59762 8.3053618,8.3053618 0 0 0 -0.76617,-2.58203 2.9727679,2.9727679 0 0 0 -3.14133,-2.29852 3.8998424,3.8998424 0 0 0 -3.45546,3.40949 1.9460903,1.9460903 0 0 0 1.93843,2.35216 c 0.35244,0.0383 0.44438,-0.35244 0.29115,-0.58996 0,0 0,0 0,0 a 1.0573246,1.0573246 0 0 1 -0.46737,-0.63592 1.0879718,1.0879718 0 0 1 0.27582,-1.02668 c 0,0 0,0 0.0383,0 l 0.12259,-0.0766 a 1.4097662,1.4097662 0 0 1 1.21822,-0.0766 2.6969441,2.6969441 0 0 1 1.13395,0.99603 7.6617729,7.6617729 0 0 1 0.22219,2.94977 4.788608,4.788608 0 0 1 -0.12259,0.47503 c 0,0.13026 -0.046,0.26051 -0.0766,0.39076 a 12.174557,12.174557 0 0 1 -1.08797,3.13366 c -1.17225,2.5667 -2.6663,4.88821 -3.62402,7.53152 a 5.7999621,5.7999621 0 0 0 -0.13791,0.95007 3.8308864,3.8308864 0 0 0 0.3601,2.36749 0.337118,0.337118 0 0 0 0.10727,0.12258 c 0.88876,1.37912 3.42481,1.37146 4.81925,1.16459 a 2.7582383,2.7582383 0 0 0 2.52838,-2.90381 1.3561338,1.3561338 0 0 0 0,-0.16089 c 0.0996,-1.25654 -1.55534,-2.30621 -2.47475,-1.39445 z"
     id="path1200"
     inkscape:connector-curvature="0"
     style="fill:#f4f1d7;stroke-width:0.7661773" />
  <path
     class="cls-1"
     d="m 178.22811,61.160759 a 1.2335454,1.2335454 0 0 0 -0.90409,-0.85045 1.4327515,1.4327515 0 0 0 -0.80449,-0.20688 0.69722133,0.69722133 0 0 0 -0.65125,0.18389 l -0.0766,0.0842 a 0.42139751,0.42139751 0 0 0 -0.15323,0.51335 3.7619305,3.7619305 0 0 0 0.28348,0.51333 c -0.19154,1.12628 -1.67792,1.48639 -2.87316,1.42509 a 1.8847961,1.8847961 0 0 1 -1.34081,-1.06498 c 1.40976,-0.46737 4.01477,-1.29484 4.40552,-2.9881 a 0.60528006,0.60528006 0 0 0 0,-0.0689 l 0.0383,-0.16856 a 0.29880914,0.29880914 0 0 0 0,-0.11493 c 0.27582,-0.87344 -0.82747,-1.75454 -1.53235,-2.09165 a 4.1986515,4.1986515 0 0 0 -0.46737,-0.16857 3.8308864,3.8308864 0 0 0 -2.12998,-0.21453 3.1566504,3.1566504 0 0 0 -1.18757,0.39841 h -0.0383 c -2.29854,1.40211 -3.78492,5.02613 -1.53236,6.68873 1.05733,1.16459 3.25625,1.44042 5.04144,1.2029 a 4.2676075,4.2676075 0 0 0 2.94979,-0.88111 2.3368407,2.3368407 0 0 0 0.97304,-2.19126 z m -5.94554,-2.83486 c 0.45971,-0.2605 2.45178,-0.76617 2.07635,0.29115 -0.17623,0.49036 -1.4251,0.8428 -1.89246,1.06499 l -1.53236,0.76617 a 2.9497826,2.9497826 0 0 1 1.34847,-2.15296 z"
     id="path1202"
     inkscape:connector-curvature="0"
     style="fill:#f4f1d7;stroke-width:0.7661773" />
  <path
     class="cls-3"
     d="m 53.588082,43.192879 c -2.19,-1.46 -3.87,-2.28 -4.82,-4.999996 a 37.22,37.22 0 0 1 -1.1,-5.64 c -0.79,-4.54 -1.64,-9.06 -2.3,-13.63 a 127.45,127.45 0 0 0 -2.32,-13.5899987 12,12 0 0 0 -0.68,-2 5.89,5.89 0 0 0 -0.24,-0.56 5.05,5.05 0 0 0 -0.68,-1.1 3.28,3.28 0 0 0 -2.2,-1.60000002 h -0.09 v 0 a 2.08,2.08 0 0 0 -1.08,0 7.6,7.6 0 0 0 -3.54,1.76000002 0.42,0.42 0 0 0 -0.14,0.16 c -1.17,0.79 -2.29,1.72 -3.24,2.51 a 0.53,0.53 0 0 0 -0.21,0.34 c -0.44,0.47 0.17,1.14 0.74,0.93 l 0.59,-0.24 a 1.58,1.58 0 0 0 2.26,0.75 10.62,10.62 0 0 0 1.27,-0.72 13.64,13.64 0 0 0 1.34,-0.59 61.64,61.64 0 0 1 -0.27,6.6399987 c -0.08,2.79 0,5.56 0.15,8.35 a 114,114 0 0 0 2.18,16.46 c 1.19,5.659996 6.47,19.109996 14.66,13.699996 a 2.44,2.44 0 0 0 1,-2.7 3.58,3.58 0 0 0 -1.28,-4.23 z"
     id="path1204"
     inkscape:connector-curvature="0"
     style="fill:#628c54" />
  <path
     class="cls-4"
     d="m 42.848082,43.202879 c 0,-0.11 0.06,-0.21 0.1,-0.31 a 0.34,0.34 0 0 1 0.13,-0.34 h 0.07 a 1.08,1.08 0 0 1 0.39,-0.32 4.74,4.74 0 0 1 1.65,-1 9.54,9.54 0 0 1 5.44,-0.84 16.22,16.22 0 0 1 5.68,1.27 c 5.52,2.3 9,7.09 12.71,11.5 0.39,0.24 0.78,0.48 1.14,0.67 a 21.09,21.09 0 0 0 5.82,1.51 5.4,5.4 0 0 0 3.399998,-1.29 c 1,-1 1.38,-3 0.07,-3.94 0,0 0,-0.05 -0.07,-0.07 a 1.43,1.43 0 0 0 -0.799998,0 0.51,0.51 0 0 1 -0.62,-0.61 1.07,1.07 0 0 1 0.45,-0.63 0.23,0.23 0 0 1 0.07,-0.07 1.8,1.8 0 0 1 1.439998,-0.3 1,1 0 0 1 0.21,0 l 0.22,0.1 v 0 0 a 7.2,7.2 0 0 1 3.190001,11 c -3.580001,4.68 -11.329999,5.87 -16.799999,5.55 a 28.67,28.67 0 0 1 -17,-7 c -3.89,-3.34 -8.48,-8.75 -7.14,-14.22 a 0.71,0.71 0 0 1 0,-0.2 3.7,3.7 0 0 1 0.25,-0.46 z"
     id="path1206"
     inkscape:connector-curvature="0"
     style="fill:#6faa63" />
  <path
     class="cls-2"
     d="m 10.718086,36.362883 a 3.33,3.33 0 0 0 -1.1599996,-1.14 c 0.19,-1.17 -0.29,-2.94 -1.79,-2.54 a 6.16,6.16 0 0 0 -1.43,0.65 c -0.69,-0.44 -1.76,-0.68 -2.31,-0.11 a 2.12,2.12 0 0 0 -0.27,1.91 3.27,3.27 0 0 0 -0.84,1.5 c -0.31,1.2 0.92,1.48 1.82,1.56 a 5.59,5.59 0 0 1 0.82,0 c 0.19,0.07 0.42,0.46 0.57,0.6 a 3.15,3.15 0 0 0 1.12,0.87 c 1,0.299996 1.58,-0.79 1.84,-1.62 a 2.53,2.53 0 0 0 1.2599996,-0.21 1.06,1.06 0 0 0 0.37,-1.47 z"
     id="path1208"
     inkscape:connector-curvature="0"
     style="fill:#f1f1aa" />
  <path
     class="cls-1"
     d="m 36.118082,31.802883 c 0.25,-4.7 3.44,-8.64 2.63,-13.49 -0.64,-3.83 -2.24,-7.89 -5.1,-10.6099987 a 11.31,11.31 0 0 0 -2.87,-2 10.67,10.67 0 0 0 -6,-1.69 10.49,10.49 0 0 0 -1.52,-0.04 c -4,0.09 -7.869996,2 -10.909996,4.42 C 8.4780864,11.392883 8.1980864,16.502883 5.2080864,20.142883 a 6.29,6.29 0 0 1 -3.64,0.69 1.61,1.61 0 0 0 -1.52,2 17.25,17.25 0 0 0 9.87,9.25 c 0.5999996,1.46 1.1099996,2.9 1.6099996,4.45 0.44,1.35 1,3.269996 2.34,3.999996 a 2.61,2.61 0 0 0 0.61,0.22 v 0 a 1.72,1.72 0 0 0 0.59,0.06 11,11 0 0 0 4.139996,-1.069996 16.06,16.06 0 0 0 4.29,-2.66 17.43,17.43 0 0 0 14.6,0.24 1.61,1.61 0 0 0 0.24,-2.53 6.39,6.39 0 0 1 -2.22,-2.99 z"
     id="path1210"
     inkscape:connector-curvature="0"
     style="fill:#f4f1d7" />
  <path
     class="cls-2"
     d="m 21.048082,41.642879 a 3.24,3.24 0 0 1 1.35,-0.91 c 0,-1.189996 0.82,-2.839996 2.22,-2.169996 a 6.54,6.54 0 0 1 1.29,0.9 c 0.76,-0.31 1.85,-0.35 2.29,0.31 a 2.11,2.11 0 0 1 -0.09,1.929996 3.13,3.13 0 0 1 0.56,1.63 c 0.08,1.24 -1.17,1.29 -2.08,1.2 a 5.64,5.64 0 0 0 -0.81,-0.15 c -0.2,0 -0.49,0.38 -0.66,0.49 a 3.2,3.2 0 0 1 -1.27,0.65 c -1,0.11 -1.41,-1.06 -1.51,-1.93 a 2.6,2.6 0 0 1 -1.2,-0.44 1.05,1.05 0 0 1 -0.09,-1.51 z"
     id="path1212"
     inkscape:connector-curvature="0"
     style="fill:#f1f1aa" />
  <path
     class="cls-5"
     d="m 17.048086,16.132883 c -4.57,3.46 -8.2699996,9.89 -7.1799996,15.8 a 0.22,0.22 0 0 0 0.4199996,0 c 0.46,-2.79 0.72,-5.47 1.84,-8.11 a 22,22 0 0 1 5.19,-7.35 c 0.12,-0.17 -0.11,-0.5 -0.27,-0.34 z"
     id="path1214"
     inkscape:connector-curvature="0"
     style="fill:#e2deba" />
  <path
     class="cls-5"
     d="m 29.648082,20.792883 c 0.86,5.68 -1,12.87 -5.87,16.34 -0.17,0.12 -0.42,-0.12 -0.3,-0.29 a 33.9,33.9 0 0 0 4.33,-7.1 21.86,21.86 0 0 0 1.41,-8.88 c 0,-0.25 0.4,-0.32 0.43,-0.07 z"
     id="path1216"
     inkscape:connector-curvature="0"
     style="fill:#e2deba" />
  <path
     class="cls-6"
     d="m 35.048082,8.4128843 a 3,3 0 0 0 -0.22,-0.75 c -0.19,-0.45 -0.53,-0.8 -0.75,-1.23 a 0.56,0.56 0 0 0 -0.26,-0.25 9.61,9.61 0 0 0 0,-1.42 0.66,0.66 0 0 0 -0.82,-0.62 c -0.7,0.2 -1.4,0.41 -2.09,0.64 a 6.89,6.89 0 0 0 -2,-0.86 v 0 a 0.42,0.42 0 0 0 -0.29,-0.05 0.45,0.45 0 0 0 -0.48,0.41 v 0.06 a 0.3,0.3 0 0 0 0,0.13 c 0,0 0,0 0,0.06 a 0.19,0.19 0 0 0 0.05,0.1 v 0 a 0.41,0.41 0 0 0 0,0.11 1.2,1.2 0 0 0 0.22,0.42 1.32,1.32 0 0 0 -0.82,0.3 0.56,0.56 0 0 0 0.13,1 l 1.35,0.35 a 3.74,3.74 0 0 1 1.44,0.45 c 0.29,0.27 0.38,1 0.5,1.35 a 14.5,14.5 0 0 0 0.53,1.38 c 0.22,0.5099987 1,0.3199987 1.12,-0.15 0.12,-0.47 0.29,-0.9 0.43,-1.35 l 0.13,0.08 a 4.23,4.23 0 0 0 0.93,0.63 0.56,0.56 0 0 0 0.9,-0.23 0.85,0.85 0 0 0 0.05,-0.37 0.77,0.77 0 0 0 -0.05,-0.19 z"
     id="path1218"
     inkscape:connector-curvature="0"
     style="fill:#86bc79" />
  <path
     class="cls-2"
     d="m 80.38808,36.362883 a 3.28,3.28 0 0 1 1.17,-1.14 c -0.19,-1.17 0.290001,-2.94 1.780001,-2.54 a 6.16,6.16 0 0 1 1.43,0.65 c 0.69,-0.44 1.76,-0.68 2.32,-0.11 a 2.15,2.15 0 0 1 0.26,1.91 3.2,3.2 0 0 1 0.85,1.5 c 0.31,1.2 -0.92,1.48 -1.83,1.56 a 5.6,5.6 0 0 0 -0.82,0 c -0.19,0.07 -0.42,0.46 -0.56,0.6 a 3.18,3.18 0 0 1 -1.13,0.87 c -1,0.299996 -1.58,-0.79 -1.84,-1.62 a 2.53,2.53 0 0 1 -1.260001,-0.21 1.07,1.07 0 0 1 -0.37,-1.47 z"
     id="path1220"
     inkscape:connector-curvature="0"
     style="fill:#f1f1aa" />
  <path
     class="cls-2"
     d="m 70.048082,41.642879 a 3.33,3.33 0 0 0 -1.36,-0.91 c 0,-1.189996 -0.82,-2.839996 -2.22,-2.169996 a 6.52,6.52 0 0 0 -1.28,0.9 c -0.76,-0.31 -1.86,-0.35 -2.3,0.31 a 2.17,2.17 0 0 0 0.09,1.929996 3.22,3.22 0 0 0 -0.56,1.63 c -0.08,1.24 1.18,1.29 2.08,1.2 a 5.64,5.64 0 0 1 0.81,-0.15 c 0.2,0 0.5,0.38 0.66,0.49 a 3.34,3.34 0 0 0 1.27,0.65 c 1,0.11 1.41,-1.06 1.51,-1.93 a 2.6,2.6 0 0 0 1.2,-0.44 1.06,1.06 0 0 0 0.1,-1.51 z"
     id="path1222"
     inkscape:connector-curvature="0"
     style="fill:#f1f1aa" />
  <path
     class="cls-7"
     d="m 46.458082,21.752883 c 0.06,-0.85 -1.06,-1.28 -1.38,-0.4 a 79.15,79.15 0 0 0 -2.15,8.38 c -0.82,3.31 -1.7,6.6 -2.61,9.88 -0.37,1.329996 1.43,2.159996 1.81,0.829996 1.68,-5.949996 3.92,-12.469996 4.33,-18.689996 z"
     id="path1224"
     inkscape:connector-curvature="0"
     style="fill:#557a47" />
  <path
     class="cls-3"
     d="m 37.528082,43.192879 c 2.18,-1.46 3.87,-2.28 4.82,-4.999996 a 38.47,38.47 0 0 0 1.09,-5.64 c 0.8,-4.54 1.65,-9.06 2.31,-13.63 a 130,130 0 0 1 2.3,-13.5899987 12,12 0 0 1 0.68,-2 c 0.08,-0.2 0.16,-0.39 0.24,-0.56 a 4.75,4.75 0 0 1 0.69,-1.1 3.24,3.24 0 0 1 2.2,-1.60000002 h 0.09 v 0 a 2,2 0 0 1 1.07,0 7.6,7.6 0 0 1 3.54,1.76000002 0.42,0.42 0 0 1 0.14,0.16 40,40 0 0 1 3.25,2.51 0.63,0.63 0 0 1 0.21,0.34 c 0.43,0.47 -0.18,1.14 -0.75,0.93 l -0.59,-0.24 a 1.58,1.58 0 0 1 -2.26,0.75 10.62,10.62 0 0 1 -1.27,-0.72 14.69,14.69 0 0 1 -1.33,-0.59 64.33,64.33 0 0 0 0.27,6.6399987 c 0.08,2.79 0,5.56 -0.15,8.35 a 115.35,115.35 0 0 1 -2.17,16.46 c -1.2,5.659996 -6.48,19.109996 -14.67,13.699996 a 2.44,2.44 0 0 1 -1,-2.7 3.58,3.58 0 0 1 1.29,-4.23 z"
     id="path1226"
     inkscape:connector-curvature="0"
     style="fill:#628c54" />
  <path
     class="cls-4"
     d="m 48.258082,43.202879 c 0,-0.11 -0.05,-0.21 -0.09,-0.31 a 0.38,0.38 0 0 0 -0.14,-0.34 h -0.06 a 1.11,1.11 0 0 0 -0.4,-0.32 4.79,4.79 0 0 0 -1.64,-1 9.58,9.58 0 0 0 -5.45,-0.84 16.22,16.22 0 0 0 -5.68,1.27 c -5.51,2.3 -9,7.09 -12.71,11.5 -0.39,0.24 -0.77,0.48 -1.14,0.67 a 21,21 0 0 1 -5.809996,1.51 5.4,5.4 0 0 1 -3.4,-1.29 c -1,-1 -1.39,-3 -0.07,-3.94 l 0.06,-0.07 a 1.46,1.46 0 0 1 0.81,0 0.52,0.52 0 0 0 0.62,-0.61 1.08,1.08 0 0 0 -0.46,-0.63 0.2,0.2 0 0 0 -0.06,-0.07 1.82,1.82 0 0 0 -1.44,-0.3 0.78,0.78 0 0 0 -0.21,0 l -0.23,0.1 v 0 0 a 7.2,7.2 0 0 0 -3.1899996,11 c 3.5899996,4.68 11.3299956,5.87 16.8099956,5.55 a 28.73,28.73 0 0 0 16.95,-7 c 3.88,-3.34 8.47,-8.75 7.13,-14.22 a 0.71,0.71 0 0 0 0,-0.2 1.76,1.76 0 0 0 -0.2,-0.46 z"
     id="path1228"
     inkscape:connector-curvature="0"
     style="fill:#6faa63" />
  <path
     class="cls-2"
     d="m 54.718082,42.782879 a 8.45,8.45 0 0 0 -4.07,-1.12 c -0.8,-2.189996 -2.91,-4.669996 -5.15,-4.489996 -2.23,-0.18 -4.34,2.3 -5.14,4.489996 a 8.42,8.42 0 0 0 -4.07,1.12 2.73,2.73 0 0 0 -1,3.78 6.81,6.81 0 0 0 2.58,2.07 c -0.47,2.2 -0.5,5.41 2.1,6 a 8.13,8.13 0 0 0 3.64,-0.54 15.25,15.25 0 0 1 1.81,-0.65 h 0.2 a 14.64,14.64 0 0 1 1.81,0.65 8.15,8.15 0 0 0 3.64,0.54 c 2.61,-0.56 2.58,-3.77 2.11,-6 a 6.77,6.77 0 0 0 2.57,-2.07 2.74,2.74 0 0 0 -1.03,-3.78 z"
     id="path1230"
     inkscape:connector-curvature="0"
     style="fill:#f1f1aa" />
  <path
     class="cls-1"
     d="m 54.988082,31.802883 c -0.24,-4.7 -3.44,-8.64 -2.63,-13.49 0.64,-3.83 2.24,-7.89 5.1,-10.6099987 a 11.31,11.31 0 0 1 2.87,-2 17.79,17.79 0 0 1 7.53,-1.73 c 3.95,0.09 7.86,2 10.91,4.42 3.859999,2.9999987 4.149999,8.1099987 7.129999,11.7499987 a 6.32,6.32 0 0 0 3.64,0.69 1.61,1.61 0 0 1 1.52,2 17.23,17.23 0 0 1 -9.860001,9.25 c -0.61,1.46 -1.12,2.9 -1.62,4.45 -0.44,1.35 -0.999998,3.269996 -2.329998,3.999996 a 2.69,2.69 0 0 1 -0.62,0.22 v 0 a 1.67,1.67 0 0 1 -0.59,0.06 10.9,10.9 0 0 1 -4.13,-1.069996 15.75,15.75 0 0 1 -4.29,-2.66 17.46,17.46 0 0 1 -14.61,0.24 1.61,1.61 0 0 1 -0.24,-2.53 6.39,6.39 0 0 0 2.22,-2.99 z"
     id="path1232"
     inkscape:connector-curvature="0"
     style="fill:#f4f1d7" />
  <path
     class="cls-5"
     d="m 74.108082,16.132883 c 4.57,3.46 8.269999,9.89 7.179998,15.8 0,0.2 -0.38,0.21 -0.41,0 a 34.2,34.2 0 0 0 -1.83,-8.11 22,22 0 0 0 -5.189998,-7.35 c -0.19,-0.17 0.05,-0.5 0.25,-0.34 z"
     id="path1234"
     inkscape:connector-curvature="0"
     style="fill:#e2deba" />
  <path
     class="cls-5"
     d="m 61.458082,20.792883 c -0.86,5.68 1,12.87 5.87,16.34 0.17,0.12 0.42,-0.12 0.3,-0.29 a 33.9,33.9 0 0 1 -4.33,-7.1 21.86,21.86 0 0 1 -1.41,-8.88 c 0.01,-0.25 -0.39,-0.32 -0.43,-0.07 z"
     id="path1236"
     inkscape:connector-curvature="0"
     style="fill:#e2deba" />
  <path
     class="cls-6"
     d="m 56.048082,8.4128843 a 3.51,3.51 0 0 1 0.22,-0.75 c 0.19,-0.45 0.53,-0.8 0.76,-1.23 a 0.51,0.51 0 0 1 0.25,-0.25 11.2,11.2 0 0 1 0,-1.42 0.66,0.66 0 0 1 0.82,-0.62 c 0.71,0.2 1.4,0.41 2.1,0.64 a 6.66,6.66 0 0 1 2,-0.86 v 0 a 0.42,0.42 0 0 1 0.29,-0.05 0.44,0.44 0 0 1 0.47,0.41 c 0,0 0,0 0,0.06 a 0.28,0.28 0 0 1 0,0.13 c 0,0 0,0 0,0.06 a 0.33,0.33 0 0 1 -0.06,0.1 v 0 c 0,0 0,0.07 0,0.11 a 1.42,1.42 0 0 1 -0.23,0.42 1.32,1.32 0 0 1 0.82,0.3 0.56,0.56 0 0 1 -0.13,1 l -1.35,0.35 a 3.74,3.74 0 0 0 -1.44,0.45 c -0.29,0.27 -0.37,1 -0.5,1.35 a 14.42,14.42 0 0 1 -0.52,1.38 c -0.23,0.5099987 -1,0.3199987 -1.13,-0.15 -0.13,-0.47 -0.28,-0.9 -0.43,-1.35 l -0.13,0.08 a 4.23,4.23 0 0 1 -0.93,0.63 0.56,0.56 0 0 1 -0.88,-0.23 0.86,0.86 0 0 1 0,-0.37 0.38,0.38 0 0 1 0,-0.19 z"
     id="path1238"
     inkscape:connector-curvature="0"
     style="fill:#86bc79" />
</svg>
