<svg id="Layer_1" data-name="Layer 1" xmlns="http://www.w3.org/2000/svg" viewBox="0 0 34.04 34.04"><defs><style>.cls-1{fill:#f1f1aa;}</style></defs><title>mirabell_etoile_socialmediaicons</title><path class="cls-1" d="M27.24.08H6.8A6.72,6.72,0,0,0,.08,6.8V27.24A6.72,6.72,0,0,0,6.8,34H27.24A6.72,6.72,0,0,0,34,27.24V6.8A6.72,6.72,0,0,0,27.24.08ZM7.46,30.28a2.55,2.55,0,0,1-1.15.29,4.43,4.43,0,0,0-.62,0H5.63a3.84,3.84,0,0,0-.46.42,2.64,2.64,0,0,1-1,.61c-.84.15-1.23-.81-1.36-1.53a2.14,2.14,0,0,1-1-.3.88.88,0,0,1-.16-1.26,2.62,2.62,0,0,1,1.08-.83c0-.76.29-1.75,1-2a2,2,0,0,1,2.09.71A2.85,2.85,0,0,1,7.1,26.3a.87.87,0,0,1,.77,1,2.17,2.17,0,0,1-.51.94C7.77,28.84,8.17,29.79,7.46,30.28ZM24.83,9,20.07,18.2h4.76v6.74h-8l-2.55,4.94h-5v-4.5L14,15.87H9.28V9.27h8.21l2.58-5.11h4.76Z"/></svg>