<svg id="Layer_1" data-name="Layer 1" xmlns="http://www.w3.org/2000/svg" viewBox="0 0 369.36 65.13"><defs><style>.cls-1{fill:#f4f1d7;}.cls-2{fill:#f1f1aa;}.cls-3{fill:#628c54;}.cls-4{fill:#6faa63;}.cls-5{fill:#e2deba;}.cls-6{fill:#86bc79;}.cls-7{fill:#557a47;}</style></defs><title>mirabell_etoile_header</title><path class="cls-1" d="M45.7,54.74c-1.07,1.12-5.6,7.15-7.15,6.83.38.08,3.46-7.71,3.92-9,1-2.7,3-9.35-.65-11.09-2.51-1.2-5.85.62-8,2.43.59-3.81-.19-6.72-3.77-7-3.25-.25-6.2,2.33-8.23,5a14.09,14.09,0,0,0-.59-2.8A9.87,9.87,0,0,0,6.51,34c-4.42,2.69-9,11.68-4.25,16a6.84,6.84,0,0,0,1.3.91c1.54,1.54,5.75.44,7.12-.62,2.26-1.72,2.44-5.62-.1-7.16a.37.37,0,0,0-.23,0A1,1,0,0,0,9.8,43a.57.57,0,0,0-.62.36A1.17,1.17,0,0,0,9,43.6a2.52,2.52,0,0,1-.92.72,1.38,1.38,0,0,1-1,0H7.05l-.11,0-.16-.08a1.36,1.36,0,0,1-.93-1.09,2.2,2.2,0,0,1,.61-1.61C8,38.4,11.42,36.23,15,38c3.07,1.5,2.78,6.55,2.66,10.11-.14.54-.2,1.1-.37,1.64-2.05,4.24-3.84,8.63-6,12.79-1,1.9,1.78,3.54,2.87,1.68,2.29-3.92,5.16-9,6.66-14.12a47.16,47.16,0,0,1,3.36-5.36c1-1.35,3.79-5,5.66-2.22.77,1.17-1,5.24-1.55,6.67a60.51,60.51,0,0,1-3.07,7c-1,1.93-2,3.84-3.07,5.62-1.19,2,1.89,3.81,3.15,1.83.39-.62,1.09-1.78,1.91-3.28,3.53-6,10.51-17.19,12.6-14.34,1.45,2-3,9.8-3.59,11.26a13.5,13.5,0,0,0-1.36,4.37c.14,2,1.19,3.62,3.5,3.21l.94-.21c3.48-1.42,6.35-5.7,8-8.61A1.08,1.08,0,0,0,45.7,54.74Z"/><path class="cls-1" d="M54.18,59.85a.5.5,0,0,0-.5,0,13,13,0,0,0-1.3,1.47c-.68.37-1.59.69-1.91-.15a2.9,2.9,0,0,1-.08-1.33,39.23,39.23,0,0,1,1.75-3.7c.37-.81.49-1.4-.3-2a.4.4,0,0,0-.37-.06.45.45,0,0,0-.29.09l-.07,0s0,0,0,0l0,0,0,0h0l-.06.06-.18.23s0,0,0,0l-.09.14c-2,2.25-5.71,8.61-1.72,10.11a4.78,4.78,0,0,0,4.93-1.67C54.45,62.48,55.36,60.52,54.18,59.85Z"/><path class="cls-2" d="M55.49,49.28l-.67-.21c-.24-.71-.55-1.56-1.32-1.64a1.38,1.38,0,0,0-1,.45c-.27.22-.53.46-.79.7a4.22,4.22,0,0,0-1.93.36c-1.17.63-.11,1.72.63,2.35a9,9,0,0,1-.94,1.2.54.54,0,0,0-.14.31.48.48,0,0,0,0,.45.68.68,0,0,0,.25.23.57.57,0,0,0,.48.14,14.15,14.15,0,0,0,2.3-.54l.51.51c.39.38.87.9,1.48.8.91-.17.87-1.34.67-2.39.35-.18.7-.37,1-.57C57.22,50.65,56.62,49.7,55.49,49.28Z"/><path class="cls-1" d="M65.56,55.79c-1.2-1.85-3.43-1.13-5.05-.21a2.8,2.8,0,0,0-2.45-1.42A3.46,3.46,0,0,0,56,55.24a1.21,1.21,0,0,0-.16.16l-.07.09a1.81,1.81,0,0,0-.18.21,1,1,0,0,0-.27.45l0,0a.55.55,0,0,0-.05.3.65.65,0,0,0,0,.31.38.38,0,0,0,.19.28l0,0h0a.68.68,0,0,0,.54.06l.56-.17h.25c.2.11.34.41.5,1.21a2.12,2.12,0,0,1,0,.51,3.44,3.44,0,0,0-.14.86c-.06.26-.13.51-.19.73-.35,1.15-.89,2.22-1.18,3.39,0,0,0,0,0,0s0,.08,0,.13a.48.48,0,0,0,0,.17s0,0,0,0c0,.58.37,1.14,1,1.05.49-.07,1-.59,1.35-1.22s.59-1.41.94-2.1a24.64,24.64,0,0,1,1.71-3.5c.69-.95,2.37-1.3,2.48.22a.36.36,0,0,1-.09.27l-.1.13-.17.23a.38.38,0,0,0-.07.36v.08s0,0,0,0h0a.53.53,0,0,0,0,.12.88.88,0,0,0,0,.2.35.35,0,0,0,.08.13.49.49,0,0,0,.28.33,1.21,1.21,0,0,0,.2.14c.89.37,1.54-.33,1.93-1.28A3.38,3.38,0,0,0,65.56,55.79Z"/><path class="cls-1" d="M81.09,61.38a4.08,4.08,0,0,0-.07-.77.5.5,0,0,0-1,0,2.88,2.88,0,0,1-.55,1.3,2.59,2.59,0,0,1-.18.21l-.35.17a3.07,3.07,0,0,1-.91-.26.64.64,0,0,1-.06-.14,4.5,4.5,0,0,0,.55-3.47,5.79,5.79,0,0,0-1.7-3.13.94.94,0,0,0-.09-.12c-1.22-1.39-3.7-1.34-5.33-.51a3.64,3.64,0,0,0-.57.25,7.19,7.19,0,0,0-3.35,3.8c-.91,2.09-.57,4.87,1.7,5.89A6,6,0,0,0,75,63.81,3.84,3.84,0,0,0,78,65a3.17,3.17,0,0,0,1.82-.48l0,0a3.39,3.39,0,0,0,.66-.54,2.17,2.17,0,0,0,.62-1.62A3.29,3.29,0,0,0,81.09,61.38ZM70.57,59.14A4.12,4.12,0,0,1,72.11,57a2.3,2.3,0,0,1,3.13.39c.91,1.34.23,3.59-1.11,4.56a3.17,3.17,0,0,1-3.68-1.15,2.25,2.25,0,0,1-.15-.62A2.72,2.72,0,0,1,70.57,59.14Z"/><path class="cls-1" d="M89.15,52.57a.38.38,0,0,0,0-.1A19.61,19.61,0,0,0,90,50.15c.33-.8.61-1.58.8-2.17a11.22,11.22,0,0,0,0-7.37c-1.5-4.21-4.44-7.68-9.27-6.4-3.55.95-5.14,5.65-3.63,8.86a3.51,3.51,0,0,0,3.59,2.19h0a.5.5,0,0,0,.35-.06l.21-.14a2.56,2.56,0,0,0,.68-.44,2.09,2.09,0,0,0,.55-.56l.09-.11a3.25,3.25,0,0,0,.6-1.86c0-.51-.57-.61-.85-.32-1.34.62-3.53,0-3.06-1.68,0-.07,0-.13.07-.2A3.27,3.27,0,0,1,84,39.05l.24.13a3.78,3.78,0,0,1,2.63,3.64,31.58,31.58,0,0,1-.81,7.24c-.14.76-.3,1.5-.47,2.25a.35.35,0,0,0,0,.08c-.08.31-.18.63-.27.94a.08.08,0,0,0,0,0c-.65,2.24-1.39,4.44-2,6.67-.44,1.16-.9,2.31-1.41,3.44l0,0-.09.21a.47.47,0,0,0,0,.5c1,1.45,4.45.6,5.8.08a10,10,0,0,0,5.49-5C94.62,55.64,92.25,53,89.15,52.57ZM86.81,61l0-.17c.52-1.45,1-2.93,1.4-4.42a2.25,2.25,0,0,1,1,.31c.86.58,1.44,2.48.56,3.33A4.65,4.65,0,0,1,86.81,61Z"/><path class="cls-1" d="M107.38,60.94a1.63,1.63,0,0,0-1.19-1.11,1.87,1.87,0,0,0-1-.27.91.91,0,0,0-.85.25.55.55,0,0,0-.1.11.53.53,0,0,0-.2.66,4.44,4.44,0,0,0,.38.67c-.26,1.47-2.2,1.94-3.76,1.86a2.46,2.46,0,0,1-1.75-1.39c1.84-.61,5.24-1.69,5.75-3.9a.79.79,0,0,0,0-.09l.06-.22a.76.76,0,0,0,0-.15c.35-1.14-1.08-2.29-2-2.73a4.84,4.84,0,0,0-.61-.22,5,5,0,0,0-2.77-.28,4.11,4.11,0,0,0-1.56.52h0c-3,1.83-4.94,6.57-2,8.73,1.38,1.52,4.25,1.88,6.58,1.57a5.61,5.61,0,0,0,3.86-1.15A3.1,3.1,0,0,0,107.38,60.94Zm-7.77-3.7c.6-.34,3.2-1,2.71.38-.22.64-1.86,1.1-2.47,1.39l-2,1A3.85,3.85,0,0,1,99.61,57.24Z"/><path class="cls-1" d="M115.08,59.19a.46.46,0,0,0,.06.73.5.5,0,0,0,.34.16c.75,0,.41,1.52.29,1.9a2.28,2.28,0,0,1-.72,1l0,0c-3,.71-3.83-1.28-3.71-3.33a6.17,6.17,0,0,1,.19-1.14l0,0c1.54-3.95,5.07-8.26,6-12.7a9.52,9.52,0,0,0,.65-3.89c0-.12,0-.23,0-.35h0a7.19,7.19,0,0,0-.06-.78,10.84,10.84,0,0,0-1-3.37,3.89,3.89,0,0,0-4.1-3,5.1,5.1,0,0,0-4.51,4.45A2.54,2.54,0,0,0,111,41.89c.46,0,.58-.46.38-.77l0,0a1.38,1.38,0,0,1-.61-.83,1.42,1.42,0,0,1,.36-1.34l.06,0,.15-.1a1.84,1.84,0,0,1,1.59-.1,3.52,3.52,0,0,1,1.48,1.3,10,10,0,0,1,.29,3.85c0,.21-.1.42-.16.63s-.06.33-.1.5a15.76,15.76,0,0,1-1.42,4.09c-1.53,3.35-3.48,6.38-4.73,9.83a7.57,7.57,0,0,0-.18,1.24,5,5,0,0,0,.47,3.09.56.56,0,0,0,.14.16c1.16,1.81,4.47,1.8,6.29,1.52a3.6,3.6,0,0,0,3.3-3.79,1.52,1.52,0,0,0,0-.21C118.43,59.37,116.27,58,115.08,59.19Z"/><path class="cls-1" d="M126.5,59.19a.47.47,0,0,0,.07.73.48.48,0,0,0,.34.16c.74,0,.4,1.52.28,1.9a2.26,2.26,0,0,1-.71,1l0,0c-3,.71-3.84-1.28-3.71-3.33a6.16,6.16,0,0,1,.18-1.14l0,0c1.55-3.95,5.08-8.26,6-12.7a9.51,9.51,0,0,0,.64-3.89c0-.12,0-.23,0-.35h0c0-.25,0-.51-.06-.78a10.84,10.84,0,0,0-1-3.37,3.9,3.9,0,0,0-4.11-3,5.09,5.09,0,0,0-4.5,4.45,2.54,2.54,0,0,0,2.53,3.07c.46,0,.58-.46.37-.77l0,0a1.37,1.37,0,0,1-.6-.83,1.39,1.39,0,0,1,.35-1.34l.06,0,.15-.1a1.86,1.86,0,0,1,1.6-.1,3.58,3.58,0,0,1,1.48,1.3,10.47,10.47,0,0,1,.29,3.85c0,.21-.11.42-.17.63a4.8,4.8,0,0,1-.09.5,15.79,15.79,0,0,1-1.43,4.09c-1.52,3.35-3.48,6.38-4.73,9.83a6.6,6.6,0,0,0-.17,1.24,4.89,4.89,0,0,0,.47,3.09.42.42,0,0,0,.13.16c1.17,1.81,4.47,1.8,6.29,1.52a3.6,3.6,0,0,0,3.31-3.79,1.52,1.52,0,0,1,0-.21C129.86,59.37,127.69,58,126.5,59.19Z"/><path class="cls-1" d="M278.08,57.35a5.53,5.53,0,0,0-4.3-2.73,3.71,3.71,0,0,0-3.94,2.27,2.71,2.71,0,0,0,.85,3.71.47.47,0,0,0,.68-.21,1.27,1.27,0,0,1-.3-.94v-.06a.5.5,0,0,1,.05-.13.83.83,0,0,1,.06-.21,1.3,1.3,0,0,1,1.1-1,2,2,0,0,1,1.06.1,1.56,1.56,0,0,1,1.21.93c.41.91-.25,1.5-1,1.88a9.49,9.49,0,0,1-1,.62,5.24,5.24,0,0,1-.69.28l-.15.06a9.52,9.52,0,0,1-1.3.33,20.37,20.37,0,0,1-3.65.25,17.69,17.69,0,0,1-8.75-2.07,5.92,5.92,0,0,1-1.63-2.32,11.83,11.83,0,0,1,2.39-6,10.27,10.27,0,0,0,1.75.45c.34.07.68.12,1,.17a13.27,13.27,0,0,0,3.49.3c1.87-.13,5.18-.88,6-2.89a2.37,2.37,0,0,0-.86-2.8,3.94,3.94,0,0,0-1.32-.93l-.18-.08a4.6,4.6,0,0,0-1.59-.57c-2.52-.43-5.5.53-8.08,2.2-2.05-1.28-1.53-4.78-.59-6.73a20.4,20.4,0,0,0,2.46.94A11.88,11.88,0,0,0,271.28,42c2.94-.92,5.4-2.56,4.65-5.26A5.79,5.79,0,0,0,273.59,34c-1.42-1.32-3.44-1.64-5.5-1.71a.41.41,0,0,0-.25.08,13.65,13.65,0,0,0-4.07.23,12.55,12.55,0,0,0-4.57,1.5l-.21.07-.09.08-.95.48a1.27,1.27,0,0,0-.12.1,5,5,0,0,0-.77.53,7,7,0,0,0-.7.74l-.84-.69a.48.48,0,0,1-.35-.31,22,22,0,0,0-2.94-2.26,10.29,10.29,0,0,0-4.86-.63,14.68,14.68,0,0,0-2.36.38,10.74,10.74,0,0,0-1.11.49c-2.11.89-3.87,2.35-4.06,4.72-.23,3.06,2.48,5.51,5.43,5.72a5.2,5.2,0,0,0,3.12-1A7.53,7.53,0,0,0,251,39.9a.88.88,0,0,0,0-1s0-.09,0-.13l-.27,0-.22.13a2.59,2.59,0,0,1-1.8.36,1.56,1.56,0,0,1-1.37-.54v0a.92.92,0,0,1-.19-1.06c.28-1,2.13-1.6,3.05-1.13a1,1,0,0,1,.56.27h0a10.33,10.33,0,0,0,1.15.81l.17.14h.05l.53.35a.43.43,0,0,1,0,.07l.81.53c.35.26.67.49,1,.71a8.37,8.37,0,0,0-1.62,6.3,7.72,7.72,0,0,0,2.55,4.61A13.64,13.64,0,0,0,251,54.56c-1,1.64-1.53,4.22-.6,6,.44,1.58,1.94,2.27,3.38,2.87a16.76,16.76,0,0,0,6.3,1.37c.41.08.82.15,1.23.2h.07l.13,0a.41.41,0,0,0,.34-.11,27.1,27.1,0,0,0,6.57-.23,13.17,13.17,0,0,0,7.76-2.63,6.48,6.48,0,0,0,1.09-1.18,3.06,3.06,0,0,0,1-2.14A2.14,2.14,0,0,0,278.08,57.35Zm-16.87-8a13.46,13.46,0,0,1,5.39-1.49,3.31,3.31,0,0,1,1.87,1,1.19,1.19,0,0,1,0,.33.87.87,0,0,1-.15.71,9.35,9.35,0,0,1-3.73.86,7.53,7.53,0,0,1-3.88-1C260.91,49.62,261.06,49.48,261.21,49.36Zm3.23-14.24a7.59,7.59,0,0,1,4,.64c2.25,1.13,1.28,2.75-.24,3.82a6.25,6.25,0,0,1-2.06.19,13.67,13.67,0,0,1-2.8-.36A30.53,30.53,0,0,1,259.4,38,19.3,19.3,0,0,1,264.44,35.12Z"/><path class="cls-2" d="M274,26.41a4,4,0,0,0,0-.6c-.07-.74-.44-1.29-1-1.33a.47.47,0,0,0-.5.13,2,2,0,0,0-.38.3c-.62.65-.86,1.53-1.54,2.17a5.31,5.31,0,0,1-3.36,1.39.82.82,0,0,0-.54,1.15,4.85,4.85,0,0,0,2.85.48,4.79,4.79,0,0,0,3.6-1.38A3.12,3.12,0,0,0,274,26.41Z"/><path class="cls-1" d="M285.6,53.62c3,0,7.48-.8,5.81-4a.39.39,0,0,0-.31-.21l0,0-.08-.05a.51.51,0,0,0-.65.15,7.47,7.47,0,0,1-3.07.42,68.06,68.06,0,0,0,3.21-9.26c.65-2.44.82-5.43-2.07-6.4-2.5-.84-4.61,1-5.4,3.24a.43.43,0,0,0,0,.34l0,.06a.42.42,0,0,0,.62.47c1.16-.75,2.58-1.51,3.57-1.35,0,4.79-2.34,9-4.11,13.47a7.67,7.67,0,0,1-4.43-.95.4.4,0,0,1-.26-.14l0-.07a.52.52,0,0,1-.12-.17,1.25,1.25,0,0,1-.16-.33,1.7,1.7,0,0,1-.26-.38.46.46,0,0,1,0-.52,1.81,1.81,0,0,1,.79-1.55.49.49,0,0,0-.06-.36.52.52,0,0,0-.94-.25c-1,1.55-1.81,3.27-.5,4.91a7.62,7.62,0,0,0,3.66,2.15.66.66,0,0,0,0,.14,10.07,10.07,0,0,1,1.29.31c-1.18,3.39-2.8,8.79-.31,11.3a.35.35,0,0,0,.18.11,1.91,1.91,0,0,0,.45.23.62.62,0,0,0,.31.13l.21,0H283a1.61,1.61,0,0,1,.22,0l.24,0h.14a4.37,4.37,0,0,0,2-.19,6.08,6.08,0,0,0,3.91-4.22.92.92,0,0,0-1.77-.49c-.37,1.35-1.85,3.4-3.56,2.91s-1-3.25-.68-4.38A27.41,27.41,0,0,1,285.6,53.62Z"/><path class="cls-1" d="M303.77,57.33a.27.27,0,0,0,0-.16v0a.29.29,0,0,0-.09-.21.35.35,0,0,0-.68,0,.83.83,0,0,1-.15.21.6.6,0,0,0-.08.08,2.7,2.7,0,0,1-.27.39,3.28,3.28,0,0,1-.93.68,2,2,0,0,1-.49.15,4.43,4.43,0,0,0-.6-2.14l.11,0h0l.09-.06a.64.64,0,0,0,.24-.25s0-.08,0-.11a.9.9,0,0,0-.3-1.23,1.43,1.43,0,0,0-1.34-.36,3.19,3.19,0,0,0-1,.29,6,6,0,0,0-5.61,1.85,4.12,4.12,0,0,0-1.18,1.94,4.53,4.53,0,0,0,.48,4.39,3.53,3.53,0,0,0,.92,1.2h0a3.61,3.61,0,0,0,1.51,1,.35.35,0,0,0,.14,0,4.71,4.71,0,0,0,1.48.24,4.5,4.5,0,0,0,3.7-1.89,7,7,0,0,0,.76-1.4h0c.14-.43.28-.86.39-1.3h0c0-.12,0-.23.07-.34a3.22,3.22,0,0,0,1.37-.88s0,0,0-.06a3.8,3.8,0,0,0,.95-1.29,3.48,3.48,0,0,0,.34-.51,0,0,0,0,1,0,0,.18.18,0,0,0,0-.11Zm-5.16,3.26a6.4,6.4,0,0,1-1.07,1.64,7.59,7.59,0,0,1-1,.74,1.61,1.61,0,0,1-1.7-.39c-1.53-1.33-.71-3.82.62-4.91a3.73,3.73,0,0,1,.78-.48,2.87,2.87,0,0,0,1.86,3.09l.37.1.17.17A.06.06,0,0,0,298.61,60.59Zm-.3-2.32-.06-.09a1.22,1.22,0,0,1,.39-1.26,3.64,3.64,0,0,1,.41,1.84A1.68,1.68,0,0,1,298.31,58.27Z"/><path class="cls-1" d="M310.55,59.83a.52.52,0,0,0-.51,0,12.12,12.12,0,0,0-1.29,1.47c-.69.37-1.59.69-1.91-.15a2.9,2.9,0,0,1-.08-1.33,38.62,38.62,0,0,1,1.74-3.7c.38-.82.49-1.4-.29-2a.4.4,0,0,0-.37-.06.4.4,0,0,0-.29.09.18.18,0,0,0-.07,0l0,0-.05,0h0l-.07,0-.17.24s0,0,0,0l-.09.14c-2,2.24-5.7,8.61-1.71,10.11,1.69.63,3.85-.34,4.93-1.67C310.82,62.46,311.72,60.49,310.55,59.83Z"/><path class="cls-2" d="M311.86,49.26l-.68-.21c-.24-.71-.55-1.56-1.31-1.64a1.41,1.41,0,0,0-1,.44l-.8.71a4.17,4.17,0,0,0-1.92.36c-1.17.63-.12,1.72.62,2.35a9,9,0,0,1-.93,1.2.46.46,0,0,0-.14.31.48.48,0,0,0,0,.45.92.92,0,0,0,.73.37,14.65,14.65,0,0,0,2.3-.54l.51.51c.38.38.86.9,1.47.79.92-.16.87-1.33.68-2.38.34-.19.69-.37,1-.57C313.59,50.63,313,49.68,311.86,49.26Z"/><path class="cls-1" d="M319.4,59.24a.47.47,0,0,0,.07.73.48.48,0,0,0,.34.16c.75,0,.41,1.52.28,1.9a2.24,2.24,0,0,1-.71,1l-.05,0c-3,.71-3.83-1.28-3.71-3.33a6.42,6.42,0,0,1,.19-1.15l0,0c1.54-3.94,5.07-8.26,6-12.69a9.56,9.56,0,0,0,.65-3.9c0-.11,0-.23,0-.34h0a7,7,0,0,0-.06-.78,10.84,10.84,0,0,0-1-3.37,3.88,3.88,0,0,0-4.1-3,5.09,5.09,0,0,0-4.51,4.45,2.54,2.54,0,0,0,2.53,3.07c.46.05.58-.46.38-.77,0,0,0,0,0,0a1.38,1.38,0,0,1-.61-.83,1.42,1.42,0,0,1,.36-1.34s0,0,.05,0l.16-.1a1.84,1.84,0,0,1,1.59-.1,3.52,3.52,0,0,1,1.48,1.3,10,10,0,0,1,.29,3.85,6.25,6.25,0,0,1-.16.62c0,.17-.06.34-.1.51a15.89,15.89,0,0,1-1.42,4.09c-1.53,3.35-3.48,6.38-4.73,9.83a7.57,7.57,0,0,0-.18,1.24,5,5,0,0,0,.47,3.09.44.44,0,0,0,.14.16c1.16,1.8,4.47,1.79,6.29,1.52a3.6,3.6,0,0,0,3.3-3.79,1.77,1.77,0,0,0,0-.21C322.76,59.42,320.6,58.05,319.4,59.24Z"/><path class="cls-1" d="M337.42,61a1.61,1.61,0,0,0-1.18-1.11,1.87,1.87,0,0,0-1.05-.27.91.91,0,0,0-.85.24l-.1.11a.55.55,0,0,0-.2.67,4.91,4.91,0,0,0,.37.67c-.25,1.47-2.19,1.94-3.75,1.86a2.46,2.46,0,0,1-1.75-1.39c1.84-.61,5.24-1.69,5.75-3.9a.79.79,0,0,0,0-.09l.05-.22a.39.39,0,0,0,0-.15c.36-1.14-1.08-2.29-2-2.73a5.48,5.48,0,0,0-.61-.22,5,5,0,0,0-2.78-.28,4.12,4.12,0,0,0-1.55.52h-.05c-3,1.83-4.94,6.56-2,8.73,1.38,1.52,4.25,1.88,6.58,1.57a5.57,5.57,0,0,0,3.85-1.15A3.05,3.05,0,0,0,337.42,61Zm-7.76-3.7c.6-.34,3.2-1,2.71.38-.23.64-1.86,1.1-2.47,1.39l-2,1A3.85,3.85,0,0,1,329.66,57.26Z"/><path class="cls-3" d="M193.54,43.22c-2.19-1.46-3.87-2.28-4.82-5a37.22,37.22,0,0,1-1.1-5.64c-.79-4.54-1.64-9.06-2.3-13.63A127.45,127.45,0,0,0,183,5.36a12,12,0,0,0-.68-2,5.89,5.89,0,0,0-.24-.56,5.05,5.05,0,0,0-.68-1.1A3.28,3.28,0,0,0,179.2.1l-.09,0h0a2.08,2.08,0,0,0-1.08,0,7.6,7.6,0,0,0-3.54,1.76.42.42,0,0,0-.14.16c-1.17.79-2.29,1.72-3.24,2.51a.53.53,0,0,0-.21.34c-.44.47.17,1.14.74.93l.59-.24a1.58,1.58,0,0,0,2.26.75,10.62,10.62,0,0,0,1.27-.72A13.64,13.64,0,0,0,177.1,5a61.64,61.64,0,0,1-.27,6.64c-.08,2.79,0,5.56.15,8.35a114,114,0,0,0,2.18,16.46c1.19,5.66,6.47,19.11,14.66,13.7a2.44,2.44,0,0,0,1-2.7A3.58,3.58,0,0,0,193.54,43.22Z"/><path class="cls-4" d="M182.8,43.23c0-.11.06-.21.1-.31a.34.34,0,0,1,.13-.34l.07,0a1.08,1.08,0,0,1,.39-.32,4.74,4.74,0,0,1,1.65-1,9.54,9.54,0,0,1,5.44-.84,16.22,16.22,0,0,1,5.68,1.27c5.52,2.3,9,7.09,12.71,11.5.39.24.78.48,1.14.67a21.09,21.09,0,0,0,5.82,1.51,5.4,5.4,0,0,0,3.4-1.29c1-1,1.38-3,.07-3.94,0,0,0-.05-.07-.07a1.43,1.43,0,0,0-.8,0,.51.51,0,0,1-.62-.61,1.07,1.07,0,0,1,.45-.63.23.23,0,0,1,.07-.07,1.8,1.8,0,0,1,1.44-.3,1,1,0,0,1,.21,0l.22.1h0l0,0a7.2,7.2,0,0,1,3.19,11c-3.58,4.68-11.33,5.87-16.8,5.55a28.67,28.67,0,0,1-17-7c-3.89-3.34-8.48-8.75-7.14-14.22a.71.71,0,0,1,0-.2A3.7,3.7,0,0,1,182.8,43.23Z"/><path class="cls-2" d="M150.67,36.39a3.33,3.33,0,0,0-1.16-1.14c.19-1.17-.29-2.94-1.79-2.54a6.16,6.16,0,0,0-1.43.65c-.69-.44-1.76-.68-2.31-.11a2.12,2.12,0,0,0-.27,1.91,3.27,3.27,0,0,0-.84,1.5c-.31,1.2.92,1.48,1.82,1.56a5.59,5.59,0,0,1,.82,0c.19.07.42.46.57.6a3.15,3.15,0,0,0,1.12.87c1,.3,1.58-.79,1.84-1.62a2.53,2.53,0,0,0,1.26-.21A1.06,1.06,0,0,0,150.67,36.39Z"/><path class="cls-1" d="M176.07,31.83c.25-4.7,3.44-8.64,2.63-13.49-.64-3.83-2.24-7.89-5.1-10.61a11.31,11.31,0,0,0-2.87-2,10.67,10.67,0,0,0-6-1.69A10.49,10.49,0,0,0,163.21,4c-4,.09-7.87,2-10.91,4.42-3.87,3-4.15,8.11-7.14,11.75a6.29,6.29,0,0,1-3.64.69,1.61,1.61,0,0,0-1.52,2,17.25,17.25,0,0,0,9.87,9.25c.6,1.46,1.11,2.9,1.61,4.45.44,1.35,1,3.27,2.34,4a2.61,2.61,0,0,0,.61.22h0a1.72,1.72,0,0,0,.59.06,11,11,0,0,0,4.14-1.07,16.06,16.06,0,0,0,4.29-2.66,17.43,17.43,0,0,0,14.6.24,1.61,1.61,0,0,0,.24-2.53A6.39,6.39,0,0,1,176.07,31.83Z"/><path class="cls-2" d="M161,41.67a3.24,3.24,0,0,1,1.35-.91c0-1.19.82-2.84,2.22-2.17a6.54,6.54,0,0,1,1.29.9c.76-.31,1.85-.35,2.29.31a2.11,2.11,0,0,1-.09,1.93,3.13,3.13,0,0,1,.56,1.63c.08,1.24-1.17,1.29-2.08,1.2a5.64,5.64,0,0,0-.81-.15c-.2,0-.49.38-.66.49a3.2,3.2,0,0,1-1.27.65c-1,.11-1.41-1.06-1.51-1.93a2.6,2.6,0,0,1-1.2-.44A1.05,1.05,0,0,1,161,41.67Z"/><path class="cls-5" d="M157,16.16c-4.57,3.46-8.27,9.89-7.18,15.8a.22.22,0,0,0,.42,0c.46-2.79.72-5.47,1.84-8.11a22,22,0,0,1,5.19-7.35C157.39,16.33,157.16,16,157,16.16Z"/><path class="cls-5" d="M169.6,20.82c.86,5.68-1,12.87-5.87,16.34-.17.12-.42-.12-.3-.29a33.9,33.9,0,0,0,4.33-7.1,21.86,21.86,0,0,0,1.41-8.88C169.17,20.64,169.57,20.57,169.6,20.82Z"/><path class="cls-6" d="M175,8.44a3,3,0,0,0-.22-.75c-.19-.45-.53-.8-.75-1.23a.56.56,0,0,0-.26-.25,9.61,9.61,0,0,0,0-1.42.66.66,0,0,0-.82-.62c-.7.2-1.4.41-2.09.64a6.89,6.89,0,0,0-2-.86h0a.42.42,0,0,0-.29-.05.45.45,0,0,0-.48.41v.06a.3.3,0,0,0,0,.13s0,0,0,.06a.19.19,0,0,0,.05.1l0,0a.41.41,0,0,0,0,.11,1.2,1.2,0,0,0,.22.42,1.32,1.32,0,0,0-.82.3.56.56,0,0,0,.13,1l1.35.35a3.74,3.74,0,0,1,1.44.45c.29.27.38,1,.5,1.35a14.5,14.5,0,0,0,.53,1.38c.22.51,1,.32,1.12-.15s.29-.9.43-1.35l.13.08a4.23,4.23,0,0,0,.93.63A.56.56,0,0,0,175,9a.85.85,0,0,0,.05-.37A.77.77,0,0,0,175,8.44Z"/><path class="cls-2" d="M220.34,36.39a3.28,3.28,0,0,1,1.17-1.14c-.19-1.17.29-2.94,1.78-2.54a6.16,6.16,0,0,1,1.43.65c.69-.44,1.76-.68,2.32-.11a2.15,2.15,0,0,1,.26,1.91,3.2,3.2,0,0,1,.85,1.5c.31,1.2-.92,1.48-1.83,1.56a5.6,5.6,0,0,0-.82,0c-.19.07-.42.46-.56.6a3.18,3.18,0,0,1-1.13.87c-1,.3-1.58-.79-1.84-1.62a2.53,2.53,0,0,1-1.26-.21A1.07,1.07,0,0,1,220.34,36.39Z"/><path class="cls-2" d="M210,41.67a3.33,3.33,0,0,0-1.36-.91c0-1.19-.82-2.84-2.22-2.17a6.52,6.52,0,0,0-1.28.9c-.76-.31-1.86-.35-2.3.31a2.17,2.17,0,0,0,.09,1.93,3.22,3.22,0,0,0-.56,1.63c-.08,1.24,1.18,1.29,2.08,1.2a5.64,5.64,0,0,1,.81-.15c.2,0,.5.38.66.49a3.34,3.34,0,0,0,1.27.65c1,.11,1.41-1.06,1.51-1.93a2.6,2.6,0,0,0,1.2-.44A1.06,1.06,0,0,0,210,41.67Z"/><path class="cls-7" d="M186.41,21.78c.06-.85-1.06-1.28-1.38-.4a79.15,79.15,0,0,0-2.15,8.38c-.82,3.31-1.7,6.6-2.61,9.88-.37,1.33,1.43,2.16,1.81.83C183.76,34.52,186,28,186.41,21.78Z"/><path class="cls-3" d="M177.48,43.22c2.18-1.46,3.87-2.28,4.82-5a38.47,38.47,0,0,0,1.09-5.64c.8-4.54,1.65-9.06,2.31-13.63A130,130,0,0,1,188,5.36a12,12,0,0,1,.68-2c.08-.2.16-.39.24-.56a4.75,4.75,0,0,1,.69-1.1A3.24,3.24,0,0,1,191.81.1l.09,0h0a2,2,0,0,1,1.07,0,7.6,7.6,0,0,1,3.54,1.76.42.42,0,0,1,.14.16,40,40,0,0,1,3.25,2.51.63.63,0,0,1,.21.34c.43.47-.18,1.14-.75.93l-.59-.24a1.58,1.58,0,0,1-2.26.75,10.62,10.62,0,0,1-1.27-.72A14.69,14.69,0,0,1,193.91,5a64.33,64.33,0,0,0,.27,6.64c.08,2.79,0,5.56-.15,8.35a115.35,115.35,0,0,1-2.17,16.46c-1.2,5.66-6.48,19.11-14.67,13.7a2.44,2.44,0,0,1-1-2.7A3.58,3.58,0,0,1,177.48,43.22Z"/><path class="cls-4" d="M188.21,43.23c0-.11-.05-.21-.09-.31a.38.38,0,0,0-.14-.34l-.06,0a1.11,1.11,0,0,0-.4-.32,4.79,4.79,0,0,0-1.64-1,9.58,9.58,0,0,0-5.45-.84,16.22,16.22,0,0,0-5.68,1.27c-5.51,2.3-9,7.09-12.71,11.5-.39.24-.77.48-1.14.67a21,21,0,0,1-5.81,1.51,5.4,5.4,0,0,1-3.4-1.29c-1-1-1.39-3-.07-3.94l.06-.07a1.46,1.46,0,0,1,.81,0,.52.52,0,0,0,.62-.61,1.08,1.08,0,0,0-.46-.63.2.2,0,0,0-.06-.07,1.82,1.82,0,0,0-1.44-.3.78.78,0,0,0-.21,0l-.23.1h0l0,0a7.2,7.2,0,0,0-3.19,11c3.59,4.68,11.33,5.87,16.81,5.55a28.73,28.73,0,0,0,16.95-7c3.88-3.34,8.47-8.75,7.13-14.22a.71.71,0,0,0,0-.2A1.76,1.76,0,0,0,188.21,43.23Z"/><path class="cls-2" d="M194.67,42.81a8.45,8.45,0,0,0-4.07-1.12c-.8-2.19-2.91-4.67-5.15-4.49-2.23-.18-4.34,2.3-5.14,4.49a8.42,8.42,0,0,0-4.07,1.12,2.73,2.73,0,0,0-1,3.78,6.81,6.81,0,0,0,2.58,2.07c-.47,2.2-.5,5.41,2.1,6a8.13,8.13,0,0,0,3.64-.54,15.25,15.25,0,0,1,1.81-.65h.2a14.64,14.64,0,0,1,1.81.65,8.15,8.15,0,0,0,3.64.54c2.61-.56,2.58-3.77,2.11-6a6.77,6.77,0,0,0,2.57-2.07A2.74,2.74,0,0,0,194.67,42.81Z"/><path class="cls-1" d="M194.94,31.83c-.24-4.7-3.44-8.64-2.63-13.49.64-3.83,2.24-7.89,5.1-10.61a11.31,11.31,0,0,1,2.87-2A17.79,17.79,0,0,1,207.81,4c3.95.09,7.86,2,10.91,4.42,3.86,3,4.15,8.11,7.13,11.75a6.32,6.32,0,0,0,3.64.69,1.61,1.61,0,0,1,1.52,2,17.23,17.23,0,0,1-9.86,9.25c-.61,1.46-1.12,2.9-1.62,4.45-.44,1.35-1,3.27-2.33,4a2.69,2.69,0,0,1-.62.22h0a1.67,1.67,0,0,1-.59.06,10.9,10.9,0,0,1-4.13-1.07,15.75,15.75,0,0,1-4.29-2.66,17.46,17.46,0,0,1-14.61.24,1.61,1.61,0,0,1-.24-2.53A6.39,6.39,0,0,0,194.94,31.83Z"/><path class="cls-5" d="M214.06,16.16c4.57,3.46,8.27,9.89,7.18,15.8,0,.2-.38.21-.41,0A34.2,34.2,0,0,0,219,23.85a22,22,0,0,0-5.19-7.35C213.62,16.33,213.86,16,214.06,16.16Z"/><path class="cls-5" d="M201.41,20.82c-.86,5.68,1,12.87,5.87,16.34.17.12.42-.12.3-.29a33.9,33.9,0,0,1-4.33-7.1,21.86,21.86,0,0,1-1.41-8.88C201.85,20.64,201.45,20.57,201.41,20.82Z"/><path class="cls-6" d="M196,8.44a3.51,3.51,0,0,1,.22-.75c.19-.45.53-.8.76-1.23a.51.51,0,0,1,.25-.25,11.2,11.2,0,0,1,0-1.42.66.66,0,0,1,.82-.62c.71.2,1.4.41,2.1.64a6.66,6.66,0,0,1,2-.86h0a.42.42,0,0,1,.29-.05.44.44,0,0,1,.47.41s0,0,0,.06a.28.28,0,0,1,0,.13s0,0,0,.06a.33.33,0,0,1-.06.1l0,0s0,.07,0,.11a1.42,1.42,0,0,1-.23.42,1.32,1.32,0,0,1,.82.3.56.56,0,0,1-.13,1l-1.35.35a3.74,3.74,0,0,0-1.44.45c-.29.27-.37,1-.5,1.35a14.42,14.42,0,0,1-.52,1.38c-.23.51-1,.32-1.13-.15s-.28-.9-.43-1.35l-.13.08a4.23,4.23,0,0,1-.93.63A.56.56,0,0,1,196,9a.86.86,0,0,1,0-.37A.38.38,0,0,1,196,8.44Z"/></svg>