<?xml version="1.0" standalone="no"?>
<!DOCTYPE svg PUBLIC "-//W3C//DTD SVG 20010904//EN"
 "http://www.w3.org/TR/2001/REC-SVG-20010904/DTD/svg10.dtd">
<svg version="1.0" xmlns="http://www.w3.org/2000/svg"
 width="960.000000pt" height="960.000000pt" viewBox="0 0 960.000000 960.000000"
 preserveAspectRatio="xMidYMid meet">
<metadata>
Created by potrace 1.14, written by Peter Selinger 2001-2017
</metadata>
<g transform="translate(0.000000,960.000000) scale(0.100000,-0.100000)"
fill="#000000" stroke="none">
<path d="M6905 9585 c-41 -23 -52 -41 -54 -96 -1 -26 -4 -29 -22 -24 -12 4
-27 8 -33 9 -31 6 -173 39 -186 44 -8 3 -24 6 -35 7 -11 1 -51 7 -90 14 -38 6
-95 13 -125 15 -30 3 -55 5 -55 6 0 4 -296 11 -485 12 -180 1 -339 -5 -400
-16 -14 -2 -49 -7 -78 -10 -80 -9 -119 -16 -227 -38 -55 -11 -106 -21 -112
-21 -7 0 -13 -4 -13 -9 0 -5 -4 -7 -8 -4 -5 3 -42 -4 -83 -15 -41 -11 -82 -22
-92 -24 -49 -11 -333 -110 -338 -118 -3 -5 -9 -8 -13 -7 -9 2 -106 -35 -175
-66 -179 -82 -237 -109 -241 -114 -7 -7 -53 -27 -64 -28 -5 0 -12 -4 -15 -9
-3 -5 -17 -14 -31 -20 -30 -15 -132 -72 -180 -102 -19 -12 -43 -24 -52 -27
-10 -4 -18 -10 -18 -15 0 -5 -5 -9 -10 -9 -6 0 -64 -35 -128 -77 -64 -43 -121
-80 -126 -82 -5 -2 -16 -9 -25 -17 -9 -7 -79 -59 -156 -117 -179 -133 -199
-151 -320 -272 -125 -124 -253 -283 -320 -393 -5 -10 -12 -19 -15 -22 -13 -13
-122 -203 -178 -310 -24 -47 -49 -94 -55 -105 -6 -11 -11 -22 -12 -25 0 -3
-16 -39 -36 -80 -42 -87 -141 -309 -144 -320 0 -3 -12 -30 -26 -60 -34 -73
-52 -114 -54 -120 0 -3 -18 -41 -39 -85 -21 -44 -39 -84 -40 -90 -7 -30 -212
-431 -234 -458 -7 -8 -9 -17 -5 -20 3 -4 2 -7 -4 -7 -5 0 -15 -12 -22 -27 -16
-35 -123 -197 -133 -201 -5 -2 -8 -8 -8 -14 0 -5 -6 -15 -12 -22 -7 -8 -20
-24 -28 -36 -8 -12 -25 -34 -38 -48 -13 -15 -30 -37 -39 -49 -8 -13 -19 -23
-24 -23 -5 0 -35 -13 -67 -28 -59 -29 -219 -83 -256 -87 -12 -1 -21 -3 -21 -4
0 -3 -34 -11 -70 -16 -16 -2 -43 -6 -60 -10 -16 -3 -69 -6 -117 -8 -49 -1 -88
-6 -88 -11 0 -5 -6 -4 -12 1 -7 6 -62 9 -123 9 -101 -1 -116 -4 -175 -32 -83
-39 -145 -101 -184 -184 -27 -57 -31 -76 -31 -150 0 -62 5 -94 18 -117 10 -18
18 -36 19 -40 1 -5 24 -51 51 -103 27 -52 62 -117 76 -145 14 -27 28 -52 31
-55 3 -3 30 -45 60 -95 96 -159 329 -475 351 -475 5 0 9 -5 9 -11 0 -6 10 -22
23 -36 43 -48 323 -328 363 -363 94 -82 153 -130 258 -207 61 -46 116 -87 123
-93 7 -5 17 -10 22 -10 6 0 15 -8 20 -18 6 -9 11 -13 11 -9 0 4 10 -2 22 -13
13 -11 33 -23 45 -26 13 -4 23 -9 23 -13 0 -4 18 -16 40 -27 22 -10 40 -22 40
-26 0 -5 6 -8 14 -8 8 0 16 -3 18 -7 13 -30 511 -265 671 -317 9 -3 20 -14 24
-23 3 -10 14 -37 24 -60 11 -23 19 -46 19 -50 1 -4 9 -26 20 -48 11 -22 19
-43 20 -47 0 -4 5 -19 12 -35 6 -15 12 -30 13 -33 1 -3 7 -18 14 -35 6 -16 21
-53 32 -81 11 -29 22 -58 23 -65 2 -8 6 -21 9 -29 22 -50 168 -472 173 -499 3
-13 9 -32 14 -41 5 -9 25 -68 45 -131 21 -63 41 -118 45 -124 4 -5 10 -22 14
-36 3 -15 19 -55 34 -90 16 -35 30 -67 31 -71 2 -13 69 -135 100 -182 32 -52
78 -111 107 -140 60 -59 103 -96 113 -96 6 0 11 -4 11 -9 0 -15 141 -72 215
-86 32 -6 156 -6 215 0 19 2 60 6 90 9 30 3 65 8 77 11 36 8 55 12 98 20 41 7
64 12 103 19 12 3 27 8 33 11 5 4 20 8 32 10 25 3 211 61 242 75 11 5 43 18
70 29 28 10 75 30 105 44 30 13 84 37 120 53 74 32 268 131 320 163 19 11 44
25 55 30 11 5 38 21 59 36 22 15 50 31 63 36 13 5 23 13 23 19 0 5 6 10 13 10
8 0 24 9 37 20 13 11 26 20 30 20 3 0 15 8 26 18 10 10 42 33 69 52 58 39 127
93 170 133 20 19 37 26 50 22 11 -3 25 -7 30 -9 19 -6 70 -27 100 -42 17 -9
37 -17 45 -19 8 -2 33 -11 55 -21 22 -10 45 -19 50 -20 6 -2 55 -19 110 -39
55 -21 107 -38 115 -40 8 -2 15 -4 15 -5 0 -1 7 -3 15 -5 17 -3 125 -34 150
-43 8 -3 20 -6 25 -7 6 -1 12 -3 15 -4 3 -2 19 -5 35 -7 17 -3 37 -7 45 -11 8
-3 24 -8 35 -10 11 -2 61 -12 110 -23 50 -10 110 -21 135 -24 25 -3 56 -8 70
-11 14 -3 45 -7 70 -10 25 -2 61 -7 80 -9 204 -29 724 -29 930 0 19 2 54 6 77
8 22 2 49 7 60 10 10 3 36 7 58 10 65 8 118 17 155 26 19 5 51 12 70 15 19 3
50 10 67 16 18 6 37 8 43 4 5 -3 10 -1 10 6 0 7 2 10 5 7 11 -10 336 91 510
159 123 48 154 65 198 110 32 31 88 118 77 118 -2 0 2 11 10 24 12 23 22 90
21 141 -1 36 -32 140 -42 140 -5 0 -8 4 -7 8 2 5 -14 30 -34 57 -21 27 -38 45
-38 41 0 -4 -11 3 -24 16 -13 13 -37 33 -52 45 -49 38 -127 115 -186 185 -57
67 -162 218 -152 218 3 0 -3 12 -13 27 -17 25 -28 47 -76 151 -16 35 -14 101
8 282 3 25 8 56 11 70 3 14 6 34 8 45 7 43 29 143 48 220 11 44 22 87 23 95 2
8 4 15 5 15 1 0 3 8 5 17 2 10 12 46 23 80 10 35 30 97 42 138 13 41 28 81 33
88 5 6 7 12 3 12 -4 0 14 59 52 160 3 8 6 20 8 25 1 6 17 51 34 100 18 50 33
95 34 100 1 6 4 15 7 20 4 6 21 55 39 110 18 55 37 105 41 111 5 6 6 14 2 17
-3 4 -1 12 5 19 6 7 10 15 10 18 0 3 13 50 29 105 56 185 92 326 107 410 2 11
6 36 10 55 13 75 17 97 23 145 3 28 7 62 7 78 1 15 4 27 7 27 8 0 3 445 -5
485 -13 66 -19 100 -18 107 1 4 -3 31 -9 60 -6 29 -12 62 -14 73 -1 11 -19 91
-39 177 -21 87 -39 166 -41 175 -6 30 -47 167 -55 188 -5 11 -12 34 -16 50 -8
34 -8 34 -17 55 -3 8 -18 51 -32 95 -15 44 -32 86 -39 94 -6 8 -10 16 -8 18 5
7 -12 59 -40 123 -16 36 -34 76 -40 90 -89 212 -259 524 -373 688 -16 24 -60
84 -96 133 -66 90 -66 90 -54 127 19 55 20 71 6 137 -21 107 -62 197 -142 317
-44 65 -79 121 -79 126 0 4 -15 23 -32 41 l-33 33 -1 172 c-1 98 -6 183 -12
198 -16 39 -70 87 -106 93 -46 8 -72 3 -216 -40 -24 -7 -59 -17 -71 -19 -8 -2
-21 -6 -29 -9 -8 -3 -55 -17 -105 -32 -49 -14 -100 -31 -113 -37 -19 -10 -31
-7 -75 16 -29 15 -59 31 -67 36 -39 24 -165 76 -260 107 -131 43 -185 49 -225
28z"/>
<path d="M2085 2963 c-38 -8 -74 -19 -79 -24 -6 -5 -16 -9 -22 -9 -7 0 -25 -5
-41 -12 -15 -6 -30 -12 -33 -13 -13 -3 -155 -77 -166 -85 -7 -7 -31 0 -70 19
-63 31 -140 58 -189 65 -16 2 -32 5 -35 6 -6 2 -105 2 -105 0 0 -1 -13 -4 -29
-6 -33 -6 -92 -35 -121 -61 -38 -35 -104 -190 -90 -214 3 -4 1 -10 -3 -13 -13
-8 -6 -125 13 -197 5 -21 0 -33 -25 -60 -66 -72 -137 -199 -156 -281 -1 -5 -2
-9 -4 -10 -14 -18 -17 -167 -4 -177 5 -3 10 -12 12 -20 5 -23 65 -82 106 -103
52 -26 113 -48 156 -54 19 -3 42 -8 50 -11 8 -3 80 -7 160 -8 l145 -3 48 -54
c208 -229 295 -292 407 -292 96 1 135 18 202 86 35 35 108 140 108 154 0 3 6
20 14 37 8 18 21 48 29 67 14 35 15 36 68 34 104 -2 230 34 286 83 73 64 95
198 47 289 -47 89 -130 177 -230 245 -29 20 -51 39 -48 42 7 6 7 195 1 222 -3
11 -8 34 -12 50 -12 54 -50 155 -57 155 -5 0 -8 6 -8 13 0 6 -15 28 -33 47
-83 91 -168 118 -292 93z"/>
<path d="M5778 1621 c-20 -10 -39 -17 -41 -15 -4 5 -109 -96 -125 -121 -6 -11
-18 -31 -24 -45 -7 -14 -16 -27 -20 -30 -4 -3 -9 -15 -11 -25 -1 -11 -5 -25
-9 -30 -16 -25 -46 -164 -47 -215 -1 -33 -4 -36 -59 -58 -31 -13 -84 -42 -117
-64 -72 -49 -185 -164 -185 -190 0 -10 -4 -18 -8 -18 -5 0 -9 -6 -10 -12 -3
-25 -4 -73 -2 -83 1 -5 3 -14 5 -20 1 -5 3 -19 3 -31 1 -11 16 -42 33 -68 26
-38 46 -53 113 -86 79 -38 105 -47 174 -57 38 -6 38 -6 46 -58 4 -22 14 -65
23 -95 9 -30 17 -57 17 -60 1 -3 14 -31 29 -62 29 -60 108 -148 132 -148 8 0
15 -4 15 -8 0 -5 6 -9 13 -10 6 0 33 -4 60 -7 55 -8 115 8 217 58 72 35 69 33
160 109 103 85 121 97 133 93 7 -2 36 -6 66 -10 29 -3 57 -7 61 -10 33 -20
243 -26 326 -9 112 24 165 59 204 135 15 29 18 54 16 130 -2 52 -6 105 -9 119
-13 68 -59 176 -98 231 -17 24 -17 27 0 65 16 34 24 61 38 114 10 40 9 138 -3
193 -22 106 -50 144 -136 188 -24 12 -44 21 -45 20 -2 0 -4 -1 -5 0 -67 20
-198 18 -297 -6 -97 -24 -99 -23 -152 24 -45 40 -164 121 -178 121 -6 0 -11 4
-11 8 0 6 -33 23 -70 37 -86 30 -169 32 -222 6z"/>
</g>
</svg>
